<?xml version="1.0" standalone="no"?>
<!DOCTYPE svg PUBLIC "-//W3C//DTD SVG 20010904//EN"
 "http://www.w3.org/TR/2001/REC-SVG-20010904/DTD/svg10.dtd">
<svg version="1.0" xmlns="http://www.w3.org/2000/svg"
 width="990.000000pt" height="990.000000pt" viewBox="0 0 990.000000 990.000000"
 preserveAspectRatio="xMidYMid meet">
<metadata>
Created by potrace 1.11, written by Peter Selinger 2001-2013
</metadata>
<g transform="translate(0.000000,990.000000) scale(0.100000,-0.100000)"
fill="#000000" stroke="none">
<path d="M1772 9278 c-5 -7 -143 -359 -306 -782 -162 -423 -299 -772 -303
-776 -4 -4 -268 -80 -585 -170 l-578 -164 0 -2127 0 -2127 179 -104 180 -103
124 -255 125 -255 -304 -305 -304 -305 0 -45 0 -45 319 319 319 319 139 -276
c128 -257 151 -295 173 -282 4 3 96 128 204 279 l196 275 188 -108 c103 -60
556 -323 1007 -585 l820 -475 5 1742 5 1742 5 -1741 5 -1742 1720 998 1720
997 3 2096 2 2096 -54 16 c-29 9 -120 35 -202 58 -82 24 -148 47 -147 52 1 6
271 400 600 878 329 477 598 875 598 884 0 57 -13 49 -951 -590 -505 -344
-920 -624 -922 -622 -1 1 95 276 214 610 194 544 215 609 201 622 -9 9 -21 13
-29 10 -7 -3 -319 -251 -693 -550 -374 -300 -681 -544 -681 -544 -1 1 -9 236
-18 522 -10 286 -19 530 -22 543 -2 13 -12 26 -20 29 -12 4 -153 -131 -493
-471 l-477 -477 -224 452 c-124 248 -230 461 -235 473 -25 50 -42 31 -331
-374 -155 -217 -287 -396 -292 -398 -5 -1 -171 151 -368 339 -492 469 -481
459 -492 459 -5 0 -14 -6 -20 -12z m1192 -1187 c630 -601 1146 -1097 1146
-1103 0 -5 -131 -349 -290 -764 -160 -415 -289 -758 -286 -762 2 -4 -31 -28
-74 -52 l-80 -45 -2 -145 -2 -145 -6 148 -5 147 -1225 711 c-674 391 -1231
714 -1239 718 -11 7 82 256 444 1200 252 655 462 1190 466 1189 4 -2 523 -495
1153 -1097z m875 -114 l592 -1199 -83 -117 c-228 -323 -613 -859 -616 -857 -1
2 101 273 227 602 126 329 226 604 223 610 -4 6 -317 307 -697 669 -379 361
-712 678 -738 704 l-48 47 268 376 c147 207 271 373 274 369 4 -3 273 -545
598 -1204z m870 -113 l43 -1307 -456 -456 c-251 -251 -453 -461 -449 -466 4
-4 3 -5 -4 -2 -6 4 -13 3 -15 -2 -1 -5 -39 -30 -83 -56 -44 -26 -95 -56 -114
-68 l-34 -20 35 54 c19 30 222 316 451 637 230 321 417 589 417 596 0 7 -164
345 -365 751 -201 405 -365 742 -365 749 0 10 879 896 890 896 3 0 25 -588 49
-1306z m871 -100 c-270 -759 -492 -1387 -493 -1396 -1 -11 -178 -119 -516
-315 -283 -164 -521 -302 -530 -307 -9 -5 163 172 383 392 l399 400 -6 74 c-4
40 -16 393 -29 785 l-22 712 24 19 c14 11 306 245 650 520 344 275 626 499
628 498 1 -2 -218 -624 -488 -1382z m1874 1344 c-4 -6 -357 -519 -786 -1141
-428 -621 -775 -1134 -771 -1139 3 -7 1 -8 -5 -4 -7 4 -12 3 -12 -2 0 -5 -154
-99 -342 -208 -189 -109 -354 -205 -368 -213 -23 -14 -24 -14 -13 0 7 8 134
357 282 774 149 417 276 762 283 766 7 4 400 271 873 593 473 322 861 586 863
586 2 0 0 -5 -4 -12z m-1624 -4153 l0 -135 -295 0 -295 0 0 -160 0 -160 285 0
285 0 0 -135 0 -135 -285 0 -285 0 0 -300 0 -300 -165 0 -165 0 0 730 0 730
460 0 460 0 0 -135z m-2453 -177 c-2 -18 -4 -4 -4 32 0 36 2 50 4 33 2 -18 2
-48 0 -65z m-2500 -2154 c225 -130 410 -238 412 -240 2 -2 -76 -114 -173 -250
l-176 -247 -139 284 c-76 156 -184 375 -240 487 -55 111 -99 202 -96 202 3 0
188 -106 412 -236z"/>
<path d="M7530 4360 l0 -730 160 0 160 0 0 730 0 730 -160 0 -160 0 0 -730z"/>
<path d="M8670 4960 l0 -130 225 0 225 0 0 -600 0 -600 160 0 160 0 0 600 0
600 225 0 225 0 0 130 0 130 -610 0 -610 0 0 -130z"/>
</g>
</svg>
