<?xml version="1.0" encoding="UTF-8" standalone="no"?>
<svg
   xmlns:dc="http://purl.org/dc/elements/1.1/"
   xmlns:cc="http://creativecommons.org/ns#"
   xmlns:rdf="http://www.w3.org/1999/02/22-rdf-syntax-ns#"
   xmlns:svg="http://www.w3.org/2000/svg"
   xmlns="http://www.w3.org/2000/svg"
   xmlns:sodipodi="http://sodipodi.sourceforge.net/DTD/sodipodi-0.dtd"
   xmlns:inkscape="http://www.inkscape.org/namespaces/inkscape"
   width="210mm"
   height="45mm"
   viewBox="0 0 210 45"
   version="1.1"
   id="svg8"
   inkscape:version="1.0.1 (3bc2e813f5, 2020-09-07)"
   sodipodi:docname="clickhere.svg">
  <defs
     id="defs2" />
  <sodipodi:namedview
     id="base"
     pagecolor="#ffffff"
     bordercolor="#666666"
     borderopacity="1.0"
     inkscape:pageopacity="0.0"
     inkscape:pageshadow="2"
     inkscape:zoom="1.979899"
     inkscape:cx="245.55287"
     inkscape:cy="204.10244"
     inkscape:document-units="mm"
     inkscape:current-layer="layer1"
     inkscape:document-rotation="0"
     showgrid="false"
     inkscape:window-width="3725"
     inkscape:window-height="2126"
     inkscape:window-x="5989"
     inkscape:window-y="325"
     inkscape:window-maximized="1" />
  <metadata
     id="metadata5">
    <rdf:RDF>
      <cc:Work
         rdf:about="">
        <dc:format>image/svg+xml</dc:format>
        <dc:type
           rdf:resource="http://purl.org/dc/dcmitype/StillImage" />
        <dc:title></dc:title>
      </cc:Work>
    </rdf:RDF>
  </metadata>
  <g
     inkscape:label="Layer 1"
     inkscape:groupmode="layer"
     id="layer1">
    <path
       style="opacity:0.7;fill:#ffffff;fill-opacity:0.647303;stroke:#000000;stroke-width:1.05833;stroke-linecap:round;stroke-linejoin:miter;stroke-miterlimit:4;stroke-dasharray:none;stroke-opacity:0.0954357;"
       d="m 126.50347,0.09760059 c -1.26561,1.61065001 -2.08039,3.91323001 -3.12084,5.84995001 -0.55177,1.02709 -1.13732,1.95567 -1.66803,3.00474 -0.30159,0.5961596 -0.62479,1.1702504 -0.91473,1.7815804 -0.15221,0.32093 -0.34392,0.66477 -0.24213,0.66477 0.83795,0 1.68521,-0.40751 2.50205,-0.63818 0.74804,-0.21124 1.50549,-0.39113 2.25991,-0.53181 0.01,-0.002 1.0262,-0.12532 1.04924,-0.0798 -3.0374,5.6442 -4.89455,11.51161 -6.37618,17.70939 -0.089,0.3667 -0.19368,0.71783 -0.26904,1.09022 -0.013,0.0643 0.013,0.14842 0,0.21272 -0.007,0.0363 -0.0505,0.11415 -0.0269,0.10637 5.92586,-2.13697 11.00301,-3.84501 16.08844,-7.09971 0.16248,-0.10439 0.73187,-0.27674 0.86091,-0.53182 0.0256,-0.0505 -0.14517,-0.29204 -0.32284,-0.47863 -2.76676,-2.25111 -6.03535,-10.23978 -7.69077,-10.68378 2.58547,-1.1046308 4.14348,-0.43277 6.24273,-1.5407104 -2.0496,-1.67787 -3.76357,-2.99105 -5.21428,-4.92015 -1.15633,-1.44314 -1.76156,-2.53252 -2.78089,-3.78221998 -0.10294,-0.12209003 -0.50529,-0.13295003 -0.37665,-0.13295003"
       id="path14"
       sodipodi:nodetypes="cssssssccssccscccccc"
       inkscape:export-xdpi="320"
       inkscape:export-ydpi="320" />
    <path
       style="opacity:0.7;fill:#ffffff;fill-opacity:0.647303;stroke:#000000;stroke-width:1.08479;stroke-linecap:round;stroke-miterlimit:4;stroke-dasharray:none;stroke-opacity:0.0954357;"
       id="path873"
       d="m 146.16158,13.285321 c -0.12959,-0.005 -0.25943,-0.0255 -0.38877,-0.0159 -0.81329,0.0607 -1.41388,0.30817 -2.10635,0.73448 -0.39841,0.24528 -0.80079,0.48825 -1.16863,0.77735 -0.2259,0.17754 -0.40231,0.41029 -0.60346,0.61543 -0.16071,0.22387 -0.33747,0.43704 -0.48212,0.6716 -0.40371,0.65465 -0.65813,1.37514 -0.74395,2.13914 -0.0708,0.63011 -0.0265,0.8113 0.0238,1.43388 0.0451,0.22005 0.0737,0.4441 0.13522,0.66014 0.24517,0.86134 0.81359,1.69824 1.54196,2.22619 0.17798,0.12901 0.37998,0.22113 0.56998,0.3317 0.19028,0.0751 0.37273,0.17428 0.57086,0.22515 0.40649,0.10438 0.91146,0.11313 1.32056,0.0291 0.44778,-0.092 1.16254,-0.38139 1.55369,-0.60464 0.44466,-0.25378 0.86436,-0.54898 1.29654,-0.82348 0.28405,-0.25132 0.58853,-0.48131 0.85216,-0.75398 0.31259,-0.32331 0.59481,-0.67533 0.8721,-1.02938 0.81219,-1.03701 1.51101,-2.16572 2.0604,-3.36361 0.16126,-0.3516 0.29175,-0.71652 0.43763,-1.07478 0.27493,-0.9442 0.38317,-1.20549 0.53873,-2.17296 0.18095,-1.1254 0.21216,-2.27949 0.18005,-3.4169305 -0.0106,-0.3761003 -0.0409,-0.7513899 -0.0614,-1.1270799 -0.0558,-0.94903 -0.18998,-1.89391 -0.46673,-2.80536 -0.1362,-0.44856 -0.34687,-0.972 -0.54859,-1.39958 -0.0818,-0.17336 -0.17639,-0.34037 -0.26458,-0.51055 -0.0839,-0.12648 -0.14394,-0.27257 -0.25174,-0.37941 -0.34841,-0.34531 -0.72326,-0.0173 -1.05127,0.28257 -0.14742,0.13477 -0.20105,0.34671 -0.27621,0.53177 -0.24561,0.60475 -0.38189,1.24439 -0.54237,1.87393 -0.30133,1.43854 -0.50069,2.8956396 -0.55734,4.3652604 -0.0241,0.62506 -0.0215,1.25096 -0.0184,1.87648 0.006,1.18374 0.0584,2.5996 0.096,3.78597 0.11446,2.49853 0.16126,4.99842 0.16779,7.49923 0.0479,0.42879 -0.0431,1.12598 0.16773,1.52717 0.0433,0.0824 0.10387,0.17408 0.19262,0.20202 0.10253,0.0323 0.22292,0.006 0.31986,-0.0407 0.30623,-0.14663 0.5802,-0.35279 0.8703,-0.52919 0.1303,-0.14983 0.2707,-0.29146 0.39091,-0.4495 0.66979,-0.88056 1.1301,-1.91483 1.50253,-2.95005 0.0957,-0.26593 0.17404,-0.53777 0.26106,-0.80665 0.2926,-1.03626 0.4755,-2.09834 0.67324,-3.15549 0.0131,-0.0468 0.0814,-0.16459 0.0394,-0.14025 -0.18918,0.10961 -0.38202,0.23533 -0.50975,0.41279 -0.0537,0.0746 0.0147,0.18359 0.0143,0.27558 -7.9e-4,0.13961 -0.004,0.27955 -0.0177,0.41847 -0.0492,0.49122 -0.12065,0.76676 -0.2225,1.26117 -0.27837,1.23413 -0.69132,2.43521 -0.94534,3.67524 -0.0396,0.19348 -0.0676,0.38916 -0.10136,0.58375 0.0189,0.30268 -0.033,0.6063 0.22499,0.83743 0.22928,0.20543 0.59693,0.19893 0.86627,0.12346 0.21217,-0.0594 0.40276,-0.17886 0.60414,-0.26829 0,0 0.19479,-0.15305 0.19479,-0.15305 v 0 c -0.27971,0.0901 -0.50373,0.20358 -0.80903,0.14158 -0.50635,-0.10282 -0.50806,-0.54419 -0.52339,-0.95349 0.0327,-0.19276 0.0596,-0.38659 0.0981,-0.57828 0.2487,-1.23925 0.65588,-2.4403 0.93535,-3.67213 0.11341,-0.56285 0.23446,-1.11923 0.23883,-1.69619 7.9e-4,-0.0966 0.0785,-0.26639 -0.0153,-0.28935 -0.55747,-0.13644 -0.55123,0.0214 -0.61602,0.28648 -0.19169,1.04971 -0.35802,2.10623 -0.64794,3.13492 -0.0861,0.26708 -0.1632,0.53719 -0.25816,0.80123 -0.37136,1.03261 -0.84083,2.07465 -1.52866,2.93918 -0.12449,0.15647 -0.2715,0.29361 -0.40724,0.44041 0.0575,-0.0192 0.2308,-0.0745 0.17254,-0.0576 -0.0964,0.0278 -0.18796,0.10701 -0.28693,0.0907 -0.0834,-0.0138 -0.14641,-0.0962 -0.18898,-0.16926 -0.22638,-0.38855 -0.13517,-1.07485 -0.19247,-1.49537 -0.04,-2.4875 -0.12178,-4.97345 -0.25084,-7.45809 -0.0671,-1.88624 -0.15169,-3.77633 -0.0638,-5.66377 0.0686,-1.4734304 0.27209,-2.9353704 0.59583,-4.3740304 0.16482,-0.61143 0.3178,-1.28968 0.57768,-1.87579 0.0797,-0.17983 0.25928,-0.31677 0.29736,-0.50977 0.0147,-0.0744 -0.2336,0.008 -0.21275,0.081 0.0654,0.22896 0.738,-0.0471 0.52174,0.48802 0.0892,0.16825 0.18444,0.33339 0.26748,0.50474 0.20826,0.42974 0.41727,0.93075 0.55923,1.38399 0.28318,0.90407 0.41839,1.84274 0.48142,2.78587 0.019,0.3754596 0.048,0.7505596 0.057,1.1264004 0.0454,1.89069 -0.13111,3.7876 -0.75224,5.58393 -0.14462,0.35606 -0.27394,0.71873 -0.43384,1.0682 -0.54599,1.19329 -1.24184,2.32121 -2.05753,3.34885 -0.28155,0.3547 -0.57044,0.70537 -0.88827,1.02797 -0.26803,0.27205 -0.57656,0.50098 -0.86484,0.75146 -0.11996,0.094 -0.22755,0.20644 -0.35989,0.28203 -0.24641,0.14075 -0.50645,0.25788 -0.76991,0.36331 -0.68695,0.2749 -1.33413,0.41819 -2.0685,0.24171 -0.19768,-0.0475 -0.38057,-0.14318 -0.57085,-0.21477 -0.18839,-0.10717 -0.38862,-0.19579 -0.56518,-0.3215 -0.73208,-0.52124 -1.2797,-1.3359 -1.52308,-2.19547 -0.0605,-0.21384 -0.0893,-0.43542 -0.13395,-0.65313 -0.0489,-0.61422 -0.0933,-0.798 -0.0204,-1.41944 0.0886,-0.75448 0.34529,-1.46968 0.74799,-2.11407 0.14478,-0.23167 0.32158,-0.44172 0.48238,-0.66259 0.20214,-0.20229 0.40371,-0.40515 0.60642,-0.60687 0.0803,-0.0799 0.14796,-0.17572 0.2426,-0.23797 0.6453,-0.42443 1.2934,-0.6771 2.06348,-0.73942 0.12625,-0.0102 0.25322,0.008 0.37983,0.0118 0,0 0.47362,-0.33105 0.47362,-0.33105 z"
       inkscape:export-xdpi="320"
       inkscape:export-ydpi="320" />
    <path
       style="opacity:0.7;fill:#ffffff;fill-opacity:0.647303;stroke:#000000;stroke-width:1.08479;stroke-linecap:round;stroke-miterlimit:4;stroke-dasharray:none;stroke-opacity:0.0954357;"
       id="path875"
       d="m 158.09259,20.169571 c -0.13807,-0.4 -0.41151,-0.74887 -0.8677,-0.78193 -0.0994,-0.007 -0.19874,0.0149 -0.2981,0.0224 -0.53499,0.20889 -0.56682,0.19319 -1.18508,0.71733 -0.14562,0.12345 -0.25066,0.28893 -0.36033,0.44519 -0.43092,0.61397 -0.68588,1.29806 -0.94989,1.99349 -0.17935,0.65421 -0.44349,1.45739 -0.29059,2.14681 0.0468,0.21087 0.13932,0.41278 0.25233,0.59687 0.27588,0.4494 0.50561,0.55102 0.9206,0.84749 0.51336,0.26899 1.06413,0.43663 1.64628,0.45139 0.16369,0.004 0.33417,0.0195 0.49035,-0.0297 0.21451,-0.0676 0.39844,-0.20878 0.59766,-0.31317 0,0 0.25579,-0.20413 0.25579,-0.20413 v 0 c -0.11751,0.0494 -0.22811,0.12048 -0.35254,0.14808 -0.15788,0.035 -0.322,0.0386 -0.48371,0.0374 -0.57721,-0.004 -1.12394,-0.15982 -1.63694,-0.41896 -0.40839,-0.28381 -0.63522,-0.38067 -0.90926,-0.81512 -0.11126,-0.17639 -0.20362,-0.37025 -0.24975,-0.57364 -0.15201,-0.67021 0.10992,-1.48369 0.28857,-2.11891 0.21127,-0.54989 0.32419,-0.89845 0.60758,-1.41742 0.10626,-0.19457 0.22634,-0.382 0.35646,-0.56149 0.11146,-0.15375 0.28316,-0.26547 0.36669,-0.43602 0.0223,-0.0455 -0.1898,0.031 -0.15189,-0.003 0.0864,-0.0765 0.21032,-0.0948 0.31548,-0.14221 0.23887,-0.0326 0.31804,-0.0742 0.5483,0.008 0.30818,0.10941 0.46967,0.39578 0.61366,0.66638 0,0 0.47603,-0.26504 0.47603,-0.26504 z"
       inkscape:export-xdpi="320"
       inkscape:export-ydpi="320" />
    <path
       style="opacity:0.7;fill:#ffffff;fill-opacity:0.647303;stroke:#000000;stroke-width:1.08479;stroke-linecap:round;stroke-miterlimit:4;stroke-dasharray:none;stroke-opacity:0.0954357;"
       id="path877"
       d="m 159.76612,19.264091 c 0.22465,-0.13336 0.46223,-0.24701 0.67394,-0.40009 0.26169,-0.18923 0.57159,-0.64631 0.71605,-0.88589 0.5654,-0.93766 0.91661,-1.96505 1.28324,-2.99011 0.40069,-1.23759 0.67157,-2.53065 0.51114,-3.8357 -0.0753,-0.61288 -0.14032,-0.7098 -0.33473,-1.2622005 -0.14221,-0.2550603 -0.23136,-0.5214703 -0.50584,-0.6685803 -0.37205,-0.1993896 -0.79656,0.18197 -1.03101,0.39504 -0.28941,0.2630003 -0.53136,1.1577308 -0.61978,1.4120808 -0.79615,2.87054 -0.9193,5.85867 -1.07878,8.81579 -0.0961,1.9259 -0.23718,3.85373 -0.59808,5.75012 -0.0618,0.27305 -0.074,0.35057 -0.14643,0.59715 -0.0156,0.053 -0.0308,0.10619 -0.0514,0.15742 -0.0105,0.0262 -0.0643,0.0904 -0.0414,0.0739 0.62943,-0.45508 0.53802,-0.22965 0.55333,-0.77198 0.16121,-1.40865 0.49267,-2.80349 1.10797,-4.08683 0.13813,-0.2881 0.30352,-0.56231 0.45528,-0.84345 0.35065,-0.5215 0.52762,-0.86179 0.99426,-1.27761 0.15748,-0.14033 0.32595,-0.27793 0.52002,-0.36058 0.0439,-0.0187 -0.0511,0.12116 -0.009,0.14275 1.11574,0.56689 -0.22322,-0.49632 0.7582,0.35687 0.0453,0.17282 0.12695,0.34004 0.13588,0.51849 0.0515,1.02914 -0.69225,1.9795 -1.40177,2.63585 -0.17503,0.16192 -0.36994,0.30094 -0.5549,0.4514 -0.87733,0.5344 -0.43023,0.28612 -0.21085,0.0854 0.0109,-0.01 -0.0325,-0.005 -0.0441,0.004 -0.14331,0.111 -0.32283,0.19547 -0.41479,0.35169 -0.0387,0.0658 0.1504,-0.0332 0.22672,-0.0322 0.0982,0.001 0.19478,0.026 0.29218,0.039 0.27489,0.15236 0.41773,0.20201 0.63323,0.45049 0.46071,0.53122 0.68229,1.32789 0.90039,1.98266 0.10456,0.27696 0.22436,0.93748 0.51837,1.10325 0.0994,0.056 0.22483,0.0393 0.33724,0.0589 0,0 0.33492,-0.22288 0.33492,-0.22288 v 0 c -0.0475,-0.0501 -0.10048,-0.0956 -0.14253,-0.15045 -0.24949,-0.32527 -0.35348,-0.71935 -0.47665,-1.10362 -0.2243,-0.66602 -0.45052,-1.47052 -0.91725,-2.01256 -0.22116,-0.25685 -0.37579,-0.31525 -0.65874,-0.47772 -0.61679,-0.11038 -0.55449,-0.0899 -1.17243,0.40106 -0.0191,0.0152 0.0503,0.0199 0.0724,0.01 0.71808,-0.32884 0.74452,-0.36597 1.30522,-0.72172 0.17963,-0.15099 0.36958,-0.2905 0.53888,-0.45298 0.70316,-0.67483 1.42529,-1.65086 1.36043,-2.6846 -0.0119,-0.19007 -0.0998,-0.36758 -0.14972,-0.55137 -0.11665,-0.10352 -0.21049,-0.24073 -0.34995,-0.31056 -0.52744,-0.26411 -0.98332,0.0929 -1.4583,0.34501 -0.67564,0.35866 -1.09538,1.03567 -1.49058,1.65726 -0.41528,0.78083 -0.52705,0.93019 -0.84048,1.77104 -0.38477,1.03222 -0.60146,2.1172 -0.7554,3.2049 -0.0233,0.51093 -0.13509,0.45892 0.58306,0.2248 0.0245,-0.008 0.0159,-0.0491 0.0224,-0.074 0.0301,-0.11412 0.0679,-0.28434 0.0897,-0.39153 0.0238,-0.11667 0.0453,-0.23381 0.0679,-0.35071 0.30198,-1.88985 0.42571,-3.79992 0.50445,-5.71094 0.14591,-2.96012 0.28517,-5.95363 1.11579,-8.81763 0.11032,-0.29948 0.197,-0.60877 0.33096,-0.8984505 0.0809,-0.1748603 0.24898,-0.3050303 0.31008,-0.4877303 0.0176,-0.0525 -0.2096,0.0152 -0.16092,0.0417 0.0813,0.0442 0.19248,-0.017 0.27672,0.0213 0.27069,0.12288 0.37049,0.4058803 0.50511,0.6403508 0.21272,0.54378 0.27732,0.62053 0.3594,1.23335 0.17322,1.2933 -0.1,2.57944 -0.49364,3.80683 -0.13502,0.37025 -0.25776,0.74521 -0.40506,1.11074 -0.28001,0.69481 -0.54321,1.26674 -0.9416,1.89396 -0.12617,0.19864 -0.26618,0.3892 -0.41884,0.56827 -0.0981,0.11502 -0.25696,0.17846 -0.33042,0.31057 -0.0396,0.0711 0.1456,-0.0727 0.2184,-0.10913 0,0 -0.40829,0.32091 -0.40829,0.32091 z"
       inkscape:export-xdpi="320"
       inkscape:export-ydpi="320" />
    <path
       style="opacity:0.7;fill:#ffffff;fill-opacity:0.647303;stroke:#000000;stroke-width:1.08479;stroke-linecap:round;stroke-miterlimit:4;stroke-dasharray:none;stroke-opacity:0.0954357;"
       id="path879"
       d="m 170.00984,10.839501 c -0.0409,0.21865 -0.0861,0.43652 -0.12256,0.65595 -0.22648,1.36353 -0.40388,2.73592 -0.59149,4.10509 -0.29961,2.1865 -0.14851,1.12281 -0.4642,3.269 -0.30203,1.79206 -0.53791,3.60405 -0.99035,5.36702 -0.23254,0.2861 0.44389,-0.24901 0.59584,-0.44484 0.0912,-0.11749 0.0564,-0.29209 0.09,-0.43695 0.0483,-0.2083 0.0993,-0.41604 0.15568,-0.62229 0.20127,-0.7361 0.24757,-0.83303 0.5007,-1.57659 0.28435,-0.80321 0.65513,-1.5746 1.12148,-2.28839 0.12071,-0.18475 0.24705,-0.36667 0.38821,-0.53631 0.10532,-0.12657 0.25417,-0.21499 0.34899,-0.34961 0.0574,-0.0816 -0.15608,0.12434 -0.23413,0.18652 0.0619,0.0508 0.15415,0.0788 0.18572,0.15242 0.11843,0.27608 0.15904,1.03316 0.16469,1.27874 0.0208,0.90281 -0.0929,1.79053 -0.21004,2.68299 -0.10917,0.79324 -0.27932,1.57671 -0.38267,2.37082 -0.0341,0.26223 -0.0974,0.81198 -0.0706,1.09703 0.0125,0.13269 0.0604,0.25961 0.0906,0.38942 0.1456,0.20846 0.21564,0.39701 0.49923,0.45257 0.61083,0.11966 1.20841,-0.4739 1.59094,-0.77379 0.43101,-0.3379 0.99816,-1.07457 1.33626,-1.48478 0.51279,-0.70833 1.0116,-1.44842 1.31705,-2.27493 0.0466,-0.12605 0.24171,-0.7081 0.14129,-0.91677 -0.0335,-0.0695 -0.14119,-0.0623 -0.21179,-0.0935 -0.27719,0.16288 -0.58328,0.2844 -0.83157,0.48864 -0.14834,0.12202 -0.23748,0.30354 -0.33365,0.46981 -0.41862,0.72379 -0.63877,1.45793 -0.53193,2.30195 0.0338,0.26693 0.13619,0.5206 0.20429,0.78089 0.25535,0.43975 0.36251,0.83196 0.90472,0.99888 0.55056,0.1695 0.99247,-0.0966 1.42206,-0.40584 1.22052,-0.87853 1.04304,-0.78492 1.78888,-1.83734 0.60068,-0.98452 1.02018,-2.06347 1.22737,-3.19781 0.0634,-0.34706 0.0697,-0.51785 0.0957,-0.85055 0.01,-0.0806 0.009,-0.16325 0.03,-0.24179 0.0137,-0.0521 0.1233,-0.16065 0.0717,-0.14492 -0.13147,0.0401 -0.28259,0.10473 -0.34367,0.22787 -0.0367,0.0739 0.16379,-0.0402 0.24577,-0.0305 0.43586,0.0516 0.3868,0.11364 0.68216,0.43148 0.0727,0.14499 0.17739,0.27797 0.2181,0.43497 0.16328,0.62974 -0.0854,1.46874 -0.24327,2.06993 -0.14217,0.54127 -0.2995,1.07846 -0.44637,1.61847 -0.18157,0.82675 -0.34182,1.70005 0.26108,2.40442 0.32456,0.37918 0.52159,0.41871 0.95994,0.63283 0.49557,0.0643 0.90381,0.16271 1.40668,0.0385 0.29619,-0.0731 0.58243,-0.19273 0.85013,-0.33905 0.88829,-0.48555 1.54447,-0.92516 2.22175,-1.64434 0.26357,-0.27988 0.485,-0.59664 0.72749,-0.89496 0.40856,-0.69504 0.65278,-0.97755 0.83428,-1.7479 0.0497,-0.21113 0.0906,-0.43464 0.0542,-0.64847 -0.0585,-0.34358 -0.33983,-0.51257 -0.67228,-0.45746 -0.20746,0.0344 -0.3856,0.1679 -0.57841,0.25185 -0.37743,0.30975 -0.79101,0.58006 -1.1323,0.92924 -0.32396,0.33146 -0.84088,1.24142 -0.98102,1.68187 -0.0918,0.28864 -0.18197,0.59631 -0.14538,0.89699 0.0859,0.70635 0.56455,1.07729 1.00224,1.56066 0.27812,0.18443 0.5407,0.3948 0.83439,0.55329 0.57593,0.3108 1.15958,0.48951 1.80031,0.60309 0.2668,0.0473 0.53766,0.0899 0.80854,0.0837 0.2726,-0.006 0.53935,-0.0806 0.80904,-0.12088 0,0 0.0234,-0.0169 0.0234,-0.0169 v 0 c -0.88512,-0.32318 0.11242,0.0114 -1.16296,-0.27492 -0.93436,-0.20974 -1.80538,-0.56577 -2.56534,-1.15909 -0.41327,-0.45503 -0.89732,-0.84015 -0.98695,-1.50474 -0.0753,-0.55867 0.27695,-1.2869 0.54136,-1.73322 0.7686,-1.29743 0.42739,-0.34666 0.67479,-1.11733 0.18275,-0.0912 0.34991,-0.22484 0.54824,-0.27362 0.13503,-0.0332 0.29499,-0.0327 0.41556,0.0366 0.53758,0.30883 0.0379,1.45195 -0.1191,1.7766 -0.15317,0.31681 -0.35839,0.60569 -0.53758,0.90854 -0.89204,1.08078 -0.52578,0.72774 -1.57536,1.6414 -0.11589,0.10088 -0.22202,0.21844 -0.35744,0.29102 -0.25977,0.13922 -0.53145,0.26489 -0.81687,0.33835 -0.48246,0.12417 -0.89314,0.0332 -1.37049,-0.0227 -0.43333,-0.2024 -0.61974,-0.23355 -0.94221,-0.60041 -0.60228,-0.6852 -0.43531,-1.5293 -0.26868,-2.34037 0.14541,-0.54024 0.30295,-1.07723 0.44327,-1.61882 0.16481,-0.63607 0.40468,-1.44316 0.21694,-2.10555 -0.0459,-0.16191 -0.156,-0.29823 -0.23401,-0.44735 -0.11663,-0.11051 -0.21437,-0.24524 -0.3499,-0.33154 -0.11239,-0.0716 -0.24666,-0.10611 -0.37745,-0.1316 -0.34469,-0.0672 -0.6699,0.21329 -0.90888,0.39649 -0.0645,0.0495 -0.082,0.37057 -0.0853,0.3996 -0.13365,1.43812 -0.52167,2.76245 -1.29113,4.00047 -0.20713,0.28448 -0.42458,0.56172 -0.62139,0.85344 -0.0876,0.12989 -0.11302,0.30609 -0.23068,0.40955 -0.3566,0.31359 -0.85708,0.56857 -1.35276,0.43655 -0.54298,-0.14462 -0.64358,-0.5189 -0.90218,-0.94934 -0.0691,-0.25409 -0.17278,-0.50123 -0.20731,-0.76228 -0.0823,-0.62263 -0.005,-1.04024 0.21886,-1.61945 0.0876,-0.2267 0.20308,-0.44296 0.33098,-0.6496 0.10145,-0.16389 0.2939,-0.27404 0.35407,-0.45714 0.0249,-0.0759 -0.15206,0.0492 -0.22809,0.0738 0.25349,0.0337 0.25519,-0.0265 0.19438,0.36716 -0.0286,0.18523 -0.0857,0.36587 -0.15027,0.54183 -0.29925,0.81552 -0.77791,1.55056 -1.28952,2.24583 -1.33297,1.59667 0.0247,0.0262 -1.37332,1.48459 -0.0436,0.0455 -0.0449,0.13482 -0.10336,0.15832 -0.24605,0.0988 -0.48825,0.0721 -0.68873,-0.0962 -0.0826,-0.0693 -0.1282,-0.17339 -0.1923,-0.26009 -0.0315,-0.12317 -0.0807,-0.24312 -0.0944,-0.36951 -0.0301,-0.27857 0.0277,-0.82618 0.0589,-1.08163 0.0966,-0.79173 0.26187,-1.57312 0.36565,-2.36382 0.11061,-0.89497 0.2154,-1.78613 0.19905,-2.6902 -0.005,-0.26372 -0.0393,-1.04848 -0.16395,-1.33403 -0.041,-0.0939 -0.15205,-0.13733 -0.22808,-0.20599 -0.26593,0.14068 -0.54948,0.25216 -0.79778,0.42203 -0.21667,0.14823 -0.61466,0.72412 -0.72566,0.89631 -0.46282,0.71802 -0.82669,1.49612 -1.11538,2.29887 -0.25312,0.73562 -0.49473,1.46861 -0.6897,2.22208 -0.0387,0.14945 -0.2272,0.35116 -0.10876,0.45017 0.48827,0.40817 0.53551,0.0706 0.572,-0.12191 0.10883,-0.53939 0.19649,-1.08263 0.28807,-1.62519 0.20701,-1.22644 0.40735,-2.45408 0.57726,-3.68631 0.22944,-1.62532 0.44495,-3.25269 0.68387,-4.87666 0.33107,-2.25035 0.0915,-0.58287 0.39421,-2.50714 0.0335,-0.21306 0.0623,-0.42685 0.0935,-0.64028 0,0 -0.45094,0.21903 -0.45094,0.21903 z"
       inkscape:export-xdpi="320"
       inkscape:export-ydpi="320" />
    <path
       style="opacity:0.7;fill:#ffffff;fill-opacity:0.647303;stroke:#000000;stroke-width:1.08479;stroke-linecap:round;stroke-miterlimit:4;stroke-dasharray:none;stroke-opacity:0.0954357;"
       id="path881"
       d="m 146.02604,28.719501 c 0.0297,0.14176 0.0673,0.28207 0.089,0.42526 0.10731,0.70785 0.11789,1.10434 0.13556,1.86122 0.0285,1.22025 -0.025,2.43265 -0.0914,3.65054 -0.0538,0.904 -0.14881,1.80477 -0.27052,2.70193 -0.005,0.0368 -0.10094,0.7331 -0.13578,0.86319 -0.0105,0.0392 -0.0389,0.0711 -0.0584,0.10673 0.16044,-0.14001 0.41144,-0.21887 0.48133,-0.42002 0.0539,-0.15515 -0.12237,-0.30502 -0.17542,-0.46046 -0.31914,-0.93519 -0.10473,-0.46526 -0.5028,-1.47564 -0.33968,-0.86217 -0.3264,-0.78444 -0.74889,-1.57726 -0.28026,-0.45141 -0.57227,-0.98482 -1.10725,-1.18042 -0.0431,-0.0157 -0.37223,-0.085 -0.46083,0.002 -0.12096,0.11927 -0.20184,0.2733 -0.30277,0.40994 0.24864,0.009 0.49712,0.028 0.74591,0.0264 0.73992,-0.005 1.92391,-0.0793 2.62784,-0.12259 1.46706,-0.0902 2.93336,-0.19403 4.39994,-0.2917 0.79758,-0.0604 1.59753,-0.0808 2.39421,-0.15355 0.13259,-0.0121 0.26803,-0.0103 0.39712,-0.0429 0.14631,-0.037 0.28131,-0.10934 0.42197,-0.16401 0,0 0.0624,-0.0461 0.0624,-0.0461 v 0 c -0.054,-0.24061 0.0133,-0.13475 -0.38634,-0.11227 -0.81648,0.0459 -1.62919,0.13958 -2.44527,0.19144 -1.47391,0.10835 -2.94772,0.22159 -4.42301,0.30968 -0.80837,0.0483 -1.77853,0.1029 -2.60042,0.10835 -0.23815,0.002 -0.47613,-0.0127 -0.71419,-0.019 -0.2069,0.0844 -0.41236,0.17236 -0.62069,0.25315 -0.0524,0.0203 0.0967,-0.0651 0.15249,-0.0716 0.0986,-0.0114 0.20211,-0.009 0.29698,0.0198 0.53995,0.16515 0.85051,0.68877 1.13815,1.12634 0.2566,0.46238 0.59999,1.05257 0.80245,1.53874 0.2038,0.48939 0.33443,0.98823 0.44242,1.50473 0.0361,0.17291 -0.0678,0.43945 0.0881,0.52259 0.18865,0.10062 0.41701,-0.0947 0.62552,-0.142 0.0201,-0.0426 0.0477,-0.0824 0.0603,-0.1278 0.0712,-0.25773 0.10486,-0.61677 0.13255,-0.8669 0.0988,-0.8928 0.17701,-1.78813 0.2273,-2.68501 0.0541,-1.21522 0.0935,-2.42776 0.0678,-3.64452 -0.0148,-0.70476 -0.0236,-1.20173 -0.13163,-1.87527 -0.0235,-0.14638 -0.068,-0.2886 -0.10198,-0.43291 0,0 -0.51171,0.28962 -0.51171,0.28962 z"
       inkscape:export-xdpi="320"
       inkscape:export-ydpi="320" />
    <path
       style="opacity:0.7;fill:#ffffff;fill-opacity:0.647303;stroke:#000000;stroke-width:1.08479;stroke-linecap:round;stroke-miterlimit:4;stroke-dasharray:none;stroke-opacity:0.0954357;"
       id="path883"
       d="m 151.36784,36.767961 c -0.0887,-0.008 -0.17771,-0.0353 -0.26614,-0.0245 -0.30332,0.037 -0.58971,0.17883 -0.83683,0.35052 -0.50502,0.35089 -0.96603,0.61795 -1.24679,1.16227 -0.083,0.16093 -0.11274,0.34417 -0.16911,0.51625 0.007,0.16256 -0.0173,0.32966 0.0215,0.48768 0.1348,0.54848 0.54953,0.78622 1.09653,0.63674 0.51874,-0.14175 1.20407,-0.76666 1.53773,-1.02154 0.38614,-0.51722 0.77475,-1.08487 0.75372,-1.76398 -0.0108,-0.34829 -0.0762,-0.57954 -0.45108,-0.646 -0.14314,-0.0254 -0.28881,0.0334 -0.43322,0.0501 -0.47731,0.23771 -0.81802,0.37835 -1.23639,0.80154 -0.0881,0.0891 -0.12989,0.23058 -0.12211,0.3557 0.008,0.12512 0.0761,0.24973 0.16523,0.33785 0.30811,0.30453 0.71137,0.3204 1.10709,0.40747 0.27842,0.003 0.55702,0.0184 0.83527,0.008 0.27556,-0.0103 0.5502,-0.0398 0.8243,-0.07 0.56184,-0.0618 1.13622,-0.14869 1.67865,-0.31414 0.0916,-0.028 0.17984,-0.0661 0.26976,-0.0992 0.0886,-0.0528 0.17716,-0.10555 0.26575,-0.15832 0,0 0.1751,-0.13867 0.1751,-0.13867 v 0 c -0.005,-0.0118 -0.009,-0.0235 -0.0135,-0.0353 -0.38366,0.11504 -0.76883,0.20542 -1.16387,0.27539 -0.50195,0.0889 -1.05316,0.17216 -1.56158,0.19575 -0.27363,0.0127 -0.54785,-0.002 -0.82177,-0.003 -0.37441,-0.0787 -0.76516,-0.0924 -1.06306,-0.37127 -0.0797,-0.0746 -0.14164,-0.18313 -0.14833,-0.29213 -0.007,-0.11244 0.13062,-0.20836 0.11083,-0.31926 -0.01,-0.0559 -0.11332,-0.008 -0.16998,-0.0123 0.13625,-0.0746 0.27251,-0.1492 0.40877,-0.2238 0.20575,-0.0389 0.561,-0.1836 0.74583,0.0573 0.091,0.11863 0.10302,0.28637 0.10614,0.43587 0.014,0.6697 -0.38967,1.231 -0.77644,1.73306 -0.004,0.0584 0.0319,0.1376 -0.013,0.17533 -0.2329,0.19593 -0.70024,0.39313 -1.0249,0.33054 -0.30025,-0.0579 -0.49045,-0.32766 -0.55882,-0.60126 -0.0376,-0.15064 -0.0123,-0.3103 -0.0184,-0.46544 0.61456,-1.79802 -0.35224,0.86492 0.51191,-0.95599 0.019,-0.04 -0.10196,-0.081 -0.0708,-0.11254 0.14913,-0.15078 0.59553,-0.33977 0.81705,-0.37826 0.0836,-0.0145 0.16948,0.009 0.25423,0.0135 0,0 0.48069,-0.32439 0.48069,-0.32439 z"
       inkscape:export-xdpi="320"
       inkscape:export-ydpi="320" />
    <path
       style="opacity:0.7;fill:#ffffff;fill-opacity:0.647303;stroke:#000000;stroke-width:1.08479;stroke-linecap:round;stroke-miterlimit:4;stroke-dasharray:none;stroke-opacity:0.0954357;"
       id="path885"
       d="m 164.10709,39.034061 c 0.39475,-0.34586 0.75745,-0.74103 1.00538,-1.20895 0.22695,-0.42832 0.53376,-1.27816 0.66246,-1.73057 0.0896,-0.31504 0.14839,-0.63806 0.22258,-0.95708 0.10051,-0.6107 0.18243,-0.96571 0.20223,-1.567 0.005,-0.15083 0.009,-0.30429 -0.021,-0.45223 -0.011,-0.0546 -0.0456,-0.15626 -0.0973,-0.13567 -0.24093,0.0959 -0.47623,0.23685 -0.64698,0.43202 -0.0956,0.1093 -0.0677,0.28243 -0.10161,0.42365 -0.0111,0.52335 -0.0592,0.66729 0.12895,1.18808 0.19267,0.53323 0.44197,0.83158 0.80082,1.26929 0.12062,0.14713 0.92828,1.05763 1.07077,1.21871 0.13226,0.17174 0.27912,0.33317 0.39677,0.51522 0.14546,0.22509 0.31918,0.52104 0.2186,0.81064 -0.10055,0.2895 -0.48529,0.50345 -0.73593,0.58544 -0.0406,0.0133 -0.0687,-0.0507 -0.10301,-0.0761 -0.57418,0.15872 -1.16156,0.28071 -1.757,0.32143 -1.02212,0.0699 0.21876,-0.0497 -0.46851,0.0197 0,0 -0.18803,0.10961 -0.18803,0.10961 v 0 c -0.0239,0.0616 -0.11095,0.13163 -0.0718,0.18491 0.0485,0.066 0.15948,0.0433 0.24131,0.0457 0.59187,0.0177 1.17979,-0.14133 1.7448,-0.29172 0.39372,-0.1786 0.79438,-0.3426 1.18115,-0.53578 0.28606,-0.14289 0.61745,-0.30017 0.70921,-0.64666 0.1321,-0.49883 -0.42943,-1.00429 -0.68691,-1.33327 -0.26933,-0.29769 -0.82722,-0.9072 -1.07489,-1.21113 -0.34636,-0.42503 -0.59786,-0.73411 -0.78149,-1.25237 -0.18346,-0.51779 -0.13169,-0.64879 -0.11039,-1.16714 0.0725,-0.24584 0.33507,-0.70706 -0.26228,-0.3096 -0.0379,0.0252 0.0926,0.0443 0.10422,0.0883 0.0373,0.14127 0.0359,0.29088 0.0345,0.43699 -0.005,0.56392 -0.0875,0.97465 -0.16957,1.54227 -0.0734,0.31682 -0.13012,0.63799 -0.22031,0.95046 -0.1537,0.53245 -0.4265,1.24504 -0.7019,1.73337 -0.2644,0.4688 -0.6378,0.86517 -1.04737,1.20789 0,0 0.52251,-0.20842 0.52251,-0.20842 z"
       inkscape:export-xdpi="320"
       inkscape:export-ydpi="320" />
    <path
       style="opacity:0.7;fill:#ffffff;fill-opacity:0.647303;stroke:#000000;stroke-width:1.08479;stroke-linecap:round;stroke-miterlimit:4;stroke-dasharray:none;stroke-opacity:0.0954357;"
       id="path887"
       d="m 168.8194,31.220321 c 0.0599,0.17757 0.13524,0.35066 0.17968,0.53271 0.15872,0.65027 0.22285,1.3225 0.27673,1.98719 0.0956,1.18012 0.11614,2.36041 0.1211,3.54354 -0.002,0.76034 -0.0617,1.51777 -0.11733,2.27526 -0.009,0.11713 -0.0196,0.23425 -0.0216,0.35168 -5.2e-4,0.0354 -0.0161,0.12398 0.0138,0.10518 0.18962,-0.11899 0.34112,-0.28998 0.51167,-0.43498 -0.0527,-0.12098 -0.10532,-0.24197 -0.15798,-0.36295 0,0 -0.13029,0.0665 -0.13029,0.0665 v 0 c -0.0508,0.17199 -0.10157,0.34398 -0.15235,0.51596 0.15935,-0.0217 0.32688,-0.0101 0.47805,-0.065 0.0355,-0.0129 0.009,-0.0751 0.0117,-0.11276 0.009,-0.11774 0.0182,-0.23553 0.0252,-0.35342 0.0447,-0.75164 0.0695,-1.50456 0.0719,-2.25755 -0.0167,-1.18229 -0.04,-2.36455 -0.13203,-3.54401 -0.0502,-0.64341 -0.11724,-1.37043 -0.26894,-2.00648 -0.0444,-0.18637 -0.12147,-0.36343 -0.18221,-0.54515 0,0 -0.52707,0.30426 -0.52707,0.30426 z"
       inkscape:export-xdpi="320"
       inkscape:export-ydpi="320" />
    <path
       style="opacity:0.7;fill:#ffffff;fill-opacity:0.647303;stroke:#000000;stroke-width:1.08479;stroke-linecap:round;stroke-miterlimit:4;stroke-dasharray:none;stroke-opacity:0.0954357;"
       id="path889"
       d="m 166.54925,33.893371 c 0.14017,0.008 0.28008,0.0241 0.42049,0.0251 0.57805,0.004 1.09441,-0.0368 1.67524,-0.0912 0.74304,-0.0696 1.34253,-0.14406 2.0798,-0.26419 0.3284,-0.0535 0.65475,-0.11887 0.98213,-0.17831 0.70359,-0.12021 1.39023,-0.31772 2.08533,-0.47504 0.0215,-0.005 0.51746,-0.0975 0.58676,-0.11051 0,0 0.16676,-0.1131 0.16676,-0.1131 v 0 c -0.0331,-0.2243 0.0213,-0.16874 -0.3253,-0.10343 -0.17329,0.0326 -0.34308,0.0816 -0.51466,0.12224 -0.95732,0.22658 -0.50561,0.12307 -1.56623,0.35332 -0.32851,0.0611 -0.65593,0.12837 -0.98553,0.18329 -1.21423,0.20231 -2.49899,0.35489 -3.73183,0.35185 -0.14036,-2.6e-4 -0.28042,-0.013 -0.42062,-0.0194 0,0 -0.45234,0.3194 -0.45234,0.3194 z"
       inkscape:export-xdpi="320"
       inkscape:export-ydpi="320" />
    <path
       style="opacity:0.7;fill:#ffffff;fill-opacity:0.647303;stroke:#000000;stroke-width:1.08479;stroke-linecap:round;stroke-miterlimit:4;stroke-dasharray:none;stroke-opacity:0.0954357;"
       id="path891"
       d="m 173.58965,37.686871 c 0.19895,-0.37924 0.49948,-0.92685 0.30512,-1.36345 -0.0306,-0.0687 -0.0922,-0.11881 -0.13835,-0.1782 -0.073,-0.0231 -0.14247,-0.0726 -0.21895,-0.0693 -0.11063,0.005 -0.22107,0.0408 -0.31911,0.0923 -0.29737,0.15621 -0.5883,0.32794 -0.85918,0.52658 -0.15635,0.11466 -0.28306,0.2655 -0.41483,0.40772 -0.41044,0.44298 -0.39165,0.46227 -0.71422,0.96543 -0.11108,0.26172 -0.3179,0.59843 -0.23175,0.91299 0.0697,0.25451 0.34435,0.37175 0.57967,0.36642 0.4943,-0.0112 1.05051,-0.4931 1.37688,-0.6971 0.49968,-0.50471 0.91425,-1.08234 1.30655,-1.67175 0.0893,-0.1342 0.16957,-0.27434 0.26011,-0.40772 0.0379,-0.0559 0.18656,-0.18724 0.12495,-0.15954 -0.19698,0.0886 -0.36399,0.23255 -0.54598,0.34883 -0.0351,0.20408 -0.0947,0.5146 -0.0939,0.70791 0.002,0.51016 0.14062,1.05108 0.51522,1.42153 0.12106,0.11972 0.2798,0.19407 0.41969,0.2911 0.17207,0.0414 0.33957,0.13536 0.51621,0.12433 0.21134,-0.0132 0.42151,-0.0883 0.60481,-0.19436 0.76298,-0.44127 1.12762,-0.71042 1.54186,-1.41142 0.12318,-0.20845 0.22862,-0.42996 0.30138,-0.6609 0.0622,-0.19731 0.0665,-0.40836 0.0998,-0.61253 -0.0186,-0.16316 -0.0155,-0.33026 -0.0557,-0.48948 -0.052,-0.20605 -0.15845,-0.39395 -0.34164,-0.50731 -0.0528,-0.0327 -0.12015,-0.0731 -0.1788,-0.0526 -0.22386,0.0782 -0.44852,0.17927 -0.62785,0.33439 -0.0398,0.0345 0.0727,0.0762 0.10905,0.11437 0.0812,0.0167 0.16116,0.042 0.24369,0.0501 0.65025,0.0637 1.3299,-0.063 1.98143,-0.0688 0.15291,-10e-4 0.30551,0.014 0.45827,0.021 0.10815,0.0358 0.23601,0.0357 0.32446,0.10749 0.29921,0.24297 0.15714,0.96372 0.11002,1.2435 -0.0584,0.34687 -0.22285,1.11375 -0.29291,1.44814 -0.0811,0.41041 -0.1974,0.91748 -0.22415,1.34214 -0.01,0.15187 -0.0163,0.30714 0.0138,0.45631 0.0177,0.0876 0.0366,0.23908 0.12597,0.2367 0.17694,-0.005 0.3114,-0.16833 0.46711,-0.2525 0,0 0.0993,-0.0804 0.0993,-0.0804 v 0 c -0.0771,0.0836 -0.075,0.0998 -0.10085,-0.20536 -0.0129,-0.15243 -0.002,-0.30646 0.012,-0.45876 0.0424,-0.45147 0.1443,-0.89731 0.23243,-1.34069 0.0598,-0.28143 0.25136,-1.15876 0.29538,-1.45661 0.0515,-0.34828 0.15291,-1.02975 -0.20531,-1.29517 -0.0991,-0.0734 -0.23605,-0.0716 -0.35408,-0.10736 -0.15818,-0.005 -0.31629,-0.0174 -0.47456,-0.016 -0.71866,0.006 -1.44489,0.13875 -2.16027,0.0248 -0.22252,0.0104 -0.24615,0.004 -0.55839,0.26695 -0.0425,0.0357 0.11492,-5.3e-4 0.16457,0.0242 0.0705,0.0351 0.13731,0.085 0.18352,0.1488 0.19549,0.26977 0.16567,0.44777 0.20575,0.78045 -0.0921,0.60643 -0.0454,0.67003 -0.38982,1.23639 -0.1349,0.22185 -0.32831,0.40352 -0.47054,0.62074 -0.0363,0.0554 -0.004,0.15391 -0.06,0.18946 -0.5051,0.32125 -0.56378,0.21487 -1.07244,0.10536 -0.13619,-0.0908 -0.29054,-0.15904 -0.40858,-0.27246 -0.36696,-0.3526 -0.5099,-0.88064 -0.5082,-1.37396 5.3e-4,-0.15233 0.0719,-0.54727 0.10153,-0.72314 -0.18507,0.058 -0.38164,0.0875 -0.55522,0.17401 -0.0537,0.0268 -0.0657,0.10053 -0.0976,0.15139 -0.0834,0.13301 -0.16223,0.26895 -0.2484,0.4002 -0.38567,0.58741 -0.79392,1.16517 -1.30736,1.64985 0.11695,0.29088 -0.67438,0.14757 -0.73748,0.11239 -0.25667,-0.14311 -0.23901,-0.39612 -0.17471,-0.64296 0.0435,-0.16712 0.13751,-0.31683 0.20627,-0.47525 0.31668,-0.48139 0.32026,-0.53347 0.72249,-0.95524 0.13422,-0.14074 0.29896,-0.25181 0.42402,-0.40075 0.0234,-0.0278 -0.1392,0.0389 -0.10664,0.0228 0.30996,-0.15352 0.22778,-0.13195 0.50093,-0.0794 0.0452,0.0501 0.10505,0.0902 0.13557,0.15035 0.19015,0.37496 -0.0357,0.88312 -0.14613,1.25052 0,0 0.32403,-0.14757 0.32403,-0.14757 z"
       inkscape:export-xdpi="320"
       inkscape:export-ydpi="320" />
    <path
       style="opacity:0.7;fill:#ffffff;fill-opacity:0.647303;stroke:#000000;stroke-width:1.08479;stroke-linecap:round;stroke-miterlimit:4;stroke-dasharray:none;stroke-opacity:0.0954357;"
       id="path893"
       d="m 183.89446,31.039931 c -0.002,0.11709 0.006,0.23468 -0.005,0.35128 -0.0225,0.24223 -0.0609,0.48273 -0.0946,0.72365 -0.0992,0.70803 -0.23316,1.55411 -0.33607,2.25025 -0.19626,1.32757 -0.21486,1.48694 -0.39711,2.81088 -0.12644,1.04204 -0.27801,2.08311 -0.36816,3.12939 -0.0458,0.53158 -0.17959,0.45719 0.11668,0.51426 0,0 0.0852,-0.0397 0.0852,-0.0397 v 0 c 0.0767,-0.0711 0.18687,-0.11802 0.23002,-0.21326 0.086,-0.18982 0.19639,-1.27755 0.20459,-1.3445 0.10806,-0.8822 0.17562,-1.41751 0.2885,-2.32039 0.20911,-1.53121 0.168,-1.27361 0.40215,-2.81227 0.14963,-0.98322 0.34605,-1.97174 0.3968,-2.9674 0.006,-0.11627 -0.004,-0.23281 -0.006,-0.34922 0,0 -0.51635,0.26706 -0.51635,0.26706 z"
       inkscape:export-xdpi="320"
       inkscape:export-ydpi="320" />
    <path
       style="opacity:0.7;fill:#ffffff;fill-opacity:0.647303;stroke:#000000;stroke-width:1.08479;stroke-linecap:round;stroke-miterlimit:4;stroke-dasharray:none;stroke-opacity:0.0954357;"
       id="path895"
       d="m 182.1051,34.919181 c 0.71659,0.31211 1.51804,0.30199 2.28473,0.28299 0.7622,-0.0189 0.95025,-0.0505 1.69326,-0.12332 0.23457,-0.0364 0.46912,-0.0727 0.70368,-0.1091 0,0 0.29372,-0.21825 0.29372,-0.21825 v 0 c -0.19877,0.0103 -0.39753,0.0207 -0.59629,0.0311 -1.03219,0.0606 -2.08954,0.14904 -3.11816,-0.007 -0.31412,-0.0476 -0.45322,-0.1066 -0.72931,-0.20248 0,0 -0.53163,0.3459 -0.53163,0.3459 z"
       inkscape:export-xdpi="320"
       inkscape:export-ydpi="320" />
    <path
       style="opacity:0.7;fill:#ffffff;fill-opacity:0.647303;stroke:#000000;stroke-width:1.08479;stroke-linecap:round;stroke-miterlimit:4;stroke-dasharray:none;stroke-opacity:0.0954357;"
       id="path899"
       d="m 153.99555,15.029401 c -0.0271,0.26272 -0.14343,0.71078 -0.0491,0.96316 0.0102,0.0273 0.0339,0.0474 0.0508,0.071 0.54545,0.0801 0.69488,-0.52608 0.70337,-0.90594 -0.007,-0.0633 -0.006,-0.12705 -0.0417,-0.18342 -0.0191,-0.0305 -0.0754,-0.0812 -0.12024,-0.0598 -0.48549,0.23159 -0.41199,0.16812 -0.60636,0.36664 -0.0257,0.0481 -0.13557,0.13309 -0.14205,0.18981 -7.9e-4,0.006 0.009,0.009 0.0136,0.0137 0,0 0.44674,-0.20089 0.44674,-0.20089 v 0 c 0.0744,-0.0605 0.11818,-0.14922 0.1923,-0.21124 0.18663,-0.14932 0.0931,-0.0682 -0.3471,0.17192 -0.0159,0.009 0.0299,-0.024 0.0479,-0.0253 0.0465,-0.003 0.0557,0.0577 0.0611,0.085 0.006,0.0324 0.007,0.0656 0.0102,0.0984 -0.009,0.13855 -0.0241,0.27499 -0.0675,0.40795 -0.0139,0.0425 -0.0952,0.13102 -0.051,0.12409 0.22272,-0.0349 0.53429,-0.28963 0.34505,-0.13892 -0.0162,-0.0146 -0.0388,-0.0242 -0.0486,-0.0437 -0.11578,-0.22949 0.0294,-0.69868 0.0585,-0.94453 0,0 -0.45601,0.22199 -0.45601,0.22199 z"
       inkscape:export-xdpi="320"
       inkscape:export-ydpi="320" />
  </g>
</svg>
