<?xml version="1.0" encoding="UTF-8" standalone="no"?>
<svg
   xmlns:dc="http://purl.org/dc/elements/1.1/"
   xmlns:cc="http://creativecommons.org/ns#"
   xmlns:rdf="http://www.w3.org/1999/02/22-rdf-syntax-ns#"
   xmlns:svg="http://www.w3.org/2000/svg"
   xmlns="http://www.w3.org/2000/svg"
   xmlns:sodipodi="http://sodipodi.sourceforge.net/DTD/sodipodi-0.dtd"
   xmlns:inkscape="http://www.inkscape.org/namespaces/inkscape"
   width="210mm"
   height="297mm"
   viewBox="0 0 210 297"
   version="1.1"
   id="svg8"
   inkscape:version="1.0.1 (3bc2e813f5, 2020-09-07)"
   sodipodi:docname="click.svg">
  <defs
     id="defs2">
    <filter
       inkscape:collect="always"
       style="color-interpolation-filters:sRGB"
       id="filter2809"
       x="-0.0062005252"
       width="1.0124011"
       y="-0.0036047866"
       height="1.0072096">
      <feGaussianBlur
         inkscape:collect="always"
         stdDeviation="0.043813948"
         id="feGaussianBlur2811" />
    </filter>
    <filter
       inkscape:collect="always"
       style="color-interpolation-filters:sRGB"
       id="filter2813"
       x="-0.0082530595"
       width="1.0165061"
       y="-0.0047566468"
       height="1.0095133">
      <feGaussianBlur
         inkscape:collect="always"
         stdDeviation="0.043813948"
         id="feGaussianBlur2815" />
    </filter>
    <filter
       inkscape:collect="always"
       style="color-interpolation-filters:sRGB"
       id="filter2817"
       x="-0.024984248"
       width="1.0499685"
       y="-0.014548449"
       height="1.0290969">
      <feGaussianBlur
         inkscape:collect="always"
         stdDeviation="0.043813948"
         id="feGaussianBlur2819" />
    </filter>
    <filter
       inkscape:collect="always"
       style="color-interpolation-filters:sRGB"
       id="filter2821"
       x="-0.020397318"
       width="1.0407946"
       y="-0.0058206623"
       height="1.0116413">
      <feGaussianBlur
         inkscape:collect="always"
         stdDeviation="0.043813948"
         id="feGaussianBlur2823" />
    </filter>
    <filter
       inkscape:collect="always"
       style="color-interpolation-filters:sRGB"
       id="filter2825"
       x="-0.0050774591"
       width="1.0101549"
       y="-0.006027088"
       height="1.0120542">
      <feGaussianBlur
         inkscape:collect="always"
         stdDeviation="0.043813948"
         id="feGaussianBlur2827" />
    </filter>
    <filter
       inkscape:collect="always"
       style="color-interpolation-filters:sRGB"
       id="filter2829"
       x="-0.0093880083"
       width="1.018776"
       y="-0.010622883"
       height="1.0212458">
      <feGaussianBlur
         inkscape:collect="always"
         stdDeviation="0.043813948"
         id="feGaussianBlur2831" />
    </filter>
    <filter
       inkscape:collect="always"
       style="color-interpolation-filters:sRGB"
       id="filter2833"
       x="-0.016204999"
       width="1.03241"
       y="-0.030202273"
       height="1.0604045">
      <feGaussianBlur
         inkscape:collect="always"
         stdDeviation="0.043813948"
         id="feGaussianBlur2835" />
    </filter>
    <filter
       inkscape:collect="always"
       style="color-interpolation-filters:sRGB"
       id="filter2837"
       x="-0.021302469"
       width="1.0426049"
       y="-0.014909238"
       height="1.0298185">
      <feGaussianBlur
         inkscape:collect="always"
         stdDeviation="0.043813948"
         id="feGaussianBlur2839" />
    </filter>
    <filter
       inkscape:collect="always"
       style="color-interpolation-filters:sRGB"
       id="filter2841"
       x="-0.094711528"
       width="1.1894231"
       y="-0.011552244"
       height="1.0231045">
      <feGaussianBlur
         inkscape:collect="always"
         stdDeviation="0.043813948"
         id="feGaussianBlur2843" />
    </filter>
    <filter
       inkscape:collect="always"
       style="color-interpolation-filters:sRGB"
       id="filter2845"
       x="-0.01315"
       width="1.0263"
       y="-0.075449064"
       height="1.1508981">
      <feGaussianBlur
         inkscape:collect="always"
         stdDeviation="0.043813948"
         id="feGaussianBlur2847" />
    </filter>
    <filter
       inkscape:collect="always"
       style="color-interpolation-filters:sRGB"
       id="filter2849"
       x="-0.010804608"
       width="1.0216092"
       y="-0.019874296"
       height="1.0397486">
      <feGaussianBlur
         inkscape:collect="always"
         stdDeviation="0.043813948"
         id="feGaussianBlur2851" />
    </filter>
    <filter
       inkscape:collect="always"
       style="color-interpolation-filters:sRGB"
       id="filter2853"
       x="-0.058553958"
       width="1.1171079"
       y="-0.010466427"
       height="1.0209329">
      <feGaussianBlur
         inkscape:collect="always"
         stdDeviation="0.043813948"
         id="feGaussianBlur2855" />
    </filter>
    <filter
       inkscape:collect="always"
       style="color-interpolation-filters:sRGB"
       id="filter2857"
       x="-0.021134847"
       width="1.0422697"
       y="-0.1650854"
       height="1.3301708">
      <feGaussianBlur
         inkscape:collect="always"
         stdDeviation="0.043813948"
         id="feGaussianBlur2859" />
    </filter>
    <filter
       inkscape:collect="always"
       style="color-interpolation-filters:sRGB"
       id="filter2861"
       x="-0.11550275"
       width="1.2310055"
       y="-0.083228271"
       height="1.1664565">
      <feGaussianBlur
         inkscape:collect="always"
         stdDeviation="0.043813948"
         id="feGaussianBlur2863" />
    </filter>
  </defs>
  <sodipodi:namedview
     id="base"
     pagecolor="#ffffff"
     bordercolor="#666666"
     borderopacity="1.0"
     inkscape:pageopacity="0.0"
     inkscape:pageshadow="2"
     inkscape:zoom="3.959798"
     inkscape:cx="333.82117"
     inkscape:cy="592.96012"
     inkscape:document-units="mm"
     inkscape:current-layer="layer1"
     inkscape:document-rotation="0"
     showgrid="false"
     inkscape:window-width="3725"
     inkscape:window-height="2126"
     inkscape:window-x="5989"
     inkscape:window-y="325"
     inkscape:window-maximized="1" />
  <metadata
     id="metadata5">
    <rdf:RDF>
      <cc:Work
         rdf:about="">
        <dc:format>image/svg+xml</dc:format>
        <dc:type
           rdf:resource="http://purl.org/dc/dcmitype/StillImage" />
        <dc:title></dc:title>
      </cc:Work>
    </rdf:RDF>
  </metadata>
  <g
     inkscape:label="Layer 1"
     inkscape:groupmode="layer"
     id="layer1">
    <path
       style="fill:#ffffff;stroke:#000000;stroke-width:1.05833333;stroke-linecap:round;stroke-linejoin:miter;stroke-miterlimit:4;stroke-dasharray:none;stroke-opacity:0.09543569;fill-opacity:0.64730299;opacity:0.7;filter:url(#filter2809)"
       d="m 56.048481,113.14065 c -1.265593,1.61065 -2.08037,3.91323 -3.120814,5.84995 -0.551773,1.02709 -1.137315,1.95567 -1.668022,3.00474 -0.301583,0.59616 -0.624787,1.17025 -0.914721,1.78158 -0.152208,0.32093 -0.343919,0.66477 -0.242132,0.66477 0.837944,0 1.685202,-0.40751 2.502032,-0.63818 0.748036,-0.21124 1.505486,-0.39113 2.259901,-0.53181 0.0099,-0.002 1.026198,-0.12532 1.049238,-0.0798 -3.037385,5.6442 -4.894528,11.51161 -6.376147,17.70939 -0.08904,0.3667 -0.19368,0.71783 -0.269035,1.09022 -0.01301,0.0643 0.01301,0.14842 0,0.21272 -0.0074,0.0363 -0.05052,0.11415 -0.0269,0.10637 5.925819,-2.13697 11.002939,-3.84501 16.088338,-7.09971 0.162487,-0.10439 0.731872,-0.27674 0.860912,-0.53182 0.02556,-0.0505 -0.145167,-0.29204 -0.322844,-0.47863 -2.766741,-2.25111 -6.035314,-10.23978 -7.69073,-10.68378 2.585467,-1.10463 4.143466,-0.43277 6.242699,-1.54071 -2.049592,-1.67787 -3.763546,-2.99105 -5.214249,-4.92015 -1.156324,-1.44314 -1.761544,-2.53252 -2.780874,-3.78222 -0.102942,-0.12209 -0.505283,-0.13295 -0.37665,-0.13295"
       id="path14"
       sodipodi:nodetypes="cssssssccssccscccccc" />
    <path
       style="stroke-width:1.08479167;stroke-linecap:round;stroke-miterlimit:4;stroke-dasharray:none;fill:#ffffff;fill-opacity:0.64730299;opacity:0.7;stroke:#000000;stroke-opacity:0.09543569;filter:url(#filter2813)"
       id="path873"
       d="m 75.706482,126.32837 c -0.129587,-0.005 -0.259426,-0.0255 -0.388763,-0.0159 -0.813286,0.0607 -1.413875,0.30817 -2.106342,0.73448 -0.398402,0.24528 -0.800791,0.48825 -1.168625,0.77735 -0.225891,0.17754 -0.402304,0.41029 -0.603456,0.61543 -0.160706,0.22387 -0.337466,0.43704 -0.482116,0.6716 -0.403707,0.65465 -0.65813,1.37514 -0.743942,2.13914 -0.07077,0.63011 -0.0265,0.8113 0.02384,1.43388 0.04507,0.22005 0.07372,0.4441 0.135215,0.66014 0.245173,0.86134 0.813591,1.69824 1.541952,2.22619 0.177982,0.12901 0.379981,0.22113 0.569973,0.3317 0.190286,0.0751 0.372732,0.17428 0.570857,0.22515 0.406496,0.10438 0.911458,0.11313 1.320557,0.0291 0.447773,-0.092 1.162534,-0.38139 1.553683,-0.60464 0.444657,-0.25378 0.864354,-0.54898 1.29653,-0.82348 0.284052,-0.25132 0.588521,-0.48131 0.852154,-0.75398 0.312592,-0.32331 0.594807,-0.67533 0.872099,-1.02938 0.812183,-1.03701 1.510993,-2.16572 2.060384,-3.36361 0.161256,-0.3516 0.291751,-0.71652 0.437629,-1.07478 0.274926,-0.9442 0.383164,-1.20549 0.538723,-2.17296 0.180954,-1.1254 0.212167,-2.27949 0.180049,-3.41693 -0.01061,-0.3761 -0.04093,-0.75139 -0.0614,-1.12708 -0.05579,-0.94903 -0.189971,-1.89391 -0.466725,-2.80536 -0.136202,-0.44856 -0.346866,-0.972 -0.548585,-1.39958 -0.08178,-0.17336 -0.176387,-0.34037 -0.26458,-0.51055 -0.08392,-0.12648 -0.143942,-0.27257 -0.251741,-0.37941 -0.348403,-0.34531 -0.723249,-0.0173 -1.051263,0.28257 -0.147421,0.13477 -0.201049,0.34671 -0.276207,0.53177 -0.245605,0.60475 -0.381889,1.24439 -0.542367,1.87393 -0.301323,1.43854 -0.500687,2.89564 -0.557339,4.36526 -0.0241,0.62506 -0.02148,1.25096 -0.01836,1.87648 0.0059,1.18374 0.05842,2.5996 0.09602,3.78597 0.114464,2.49853 0.161266,4.99842 0.167796,7.49923 0.04793,0.42879 -0.04309,1.12598 0.167724,1.52717 0.04328,0.0824 0.103873,0.17408 0.192625,0.20202 0.102521,0.0323 0.222917,0.006 0.319852,-0.0407 0.306224,-0.14663 0.580197,-0.35279 0.870297,-0.52919 0.130302,-0.14983 0.270695,-0.29146 0.390908,-0.4495 0.669785,-0.88056 1.130091,-1.91483 1.502519,-2.95005 0.09567,-0.26593 0.174038,-0.53777 0.261059,-0.80665 0.2926,-1.03626 0.475496,-2.09834 0.673238,-3.15549 0.01312,-0.0468 0.08138,-0.16459 0.03937,-0.14025 -0.18918,0.10961 -0.382019,0.23533 -0.509744,0.41279 -0.05373,0.0746 0.01474,0.18359 0.01429,0.27558 -7.94e-4,0.13961 -0.0038,0.27955 -0.0177,0.41847 -0.04916,0.49122 -0.120658,0.76676 -0.222501,1.26117 -0.278366,1.23413 -0.691314,2.43521 -0.945335,3.67524 -0.03964,0.19348 -0.06757,0.38916 -0.101357,0.58375 0.01887,0.30268 -0.03297,0.6063 0.224989,0.83743 0.229269,0.20543 0.596923,0.19893 0.866261,0.12346 0.212172,-0.0594 0.402757,-0.17886 0.604137,-0.26829 0,0 0.194794,-0.15305 0.194794,-0.15305 v 0 c -0.279718,0.0901 -0.503732,0.20358 -0.809032,0.14158 -0.506344,-0.10282 -0.508061,-0.54419 -0.523391,-0.95349 0.03269,-0.19276 0.0596,-0.38659 0.09807,-0.57828 0.248703,-1.23925 0.655886,-2.4403 0.935349,-3.67213 0.113411,-0.56285 0.234455,-1.11923 0.238826,-1.69619 7.94e-4,-0.0966 0.07848,-0.26639 -0.01534,-0.28935 -0.557459,-0.13644 -0.551225,0.0214 -0.616009,0.28648 -0.191698,1.04971 -0.358021,2.10623 -0.647946,3.13492 -0.08605,0.26708 -0.1632,0.53719 -0.258156,0.80123 -0.371356,1.03261 -0.840828,2.07465 -1.528652,2.93918 -0.124484,0.15647 -0.271491,0.29361 -0.407236,0.44041 0.05751,-0.0192 0.230799,-0.0745 0.17254,-0.0576 -0.09636,0.0278 -0.18796,0.10701 -0.286922,0.0907 -0.08344,-0.0138 -0.146412,-0.0962 -0.188984,-0.16926 -0.226377,-0.38855 -0.135167,-1.07485 -0.192466,-1.49537 -0.04004,-2.4875 -0.121782,-4.97345 -0.250838,-7.45809 -0.06713,-1.88624 -0.151693,-3.77633 -0.06376,-5.66377 0.06865,-1.47343 0.272079,-2.93537 0.595823,-4.37403 0.16482,-0.61143 0.317796,-1.28968 0.577681,-1.87579 0.07974,-0.17983 0.25927,-0.31677 0.297354,-0.50977 0.01469,-0.0744 -0.2336,0.008 -0.212746,0.081 0.06545,0.22896 0.737989,-0.0471 0.521729,0.48802 0.08916,0.16825 0.184444,0.33339 0.267486,0.50474 0.208262,0.42974 0.417267,0.93075 0.559229,1.38399 0.283173,0.90407 0.418383,1.84274 0.481414,2.78587 0.019,0.37546 0.04796,0.75056 0.05699,1.1264 0.04541,1.89069 -0.131109,3.7876 -0.752242,5.58393 -0.144611,0.35606 -0.273934,0.71873 -0.433832,1.0682 -0.545989,1.19329 -1.24184,2.32121 -2.057524,3.34885 -0.281546,0.3547 -0.570437,0.70537 -0.888262,1.02797 -0.268023,0.27205 -0.576554,0.50098 -0.864831,0.75146 -0.119964,0.094 -0.227549,0.20644 -0.359891,0.28203 -0.246412,0.14075 -0.506444,0.25788 -0.769908,0.36331 -0.686938,0.2749 -1.334122,0.41819 -2.068484,0.24171 -0.197675,-0.0475 -0.380566,-0.14318 -0.570849,-0.21477 -0.188391,-0.10717 -0.388617,-0.19579 -0.565179,-0.3215 -0.732076,-0.52124 -1.279694,-1.3359 -1.523074,-2.19547 -0.06055,-0.21384 -0.08929,-0.43542 -0.13394,-0.65313 -0.04892,-0.61422 -0.09333,-0.798 -0.02037,-1.41944 0.08856,-0.75448 0.345289,-1.46968 0.747982,-2.11407 0.144778,-0.23167 0.321583,-0.44172 0.482373,-0.66259 0.202142,-0.20229 0.403709,-0.40515 0.606422,-0.60687 0.0803,-0.0799 0.147955,-0.17572 0.242597,-0.23797 0.645295,-0.42443 1.293389,-0.6771 2.063467,-0.73942 0.126256,-0.0102 0.253216,0.008 0.379825,0.0118 0,0 0.473623,-0.33105 0.473623,-0.33105 z" />
    <path
       style="stroke-width:1.08479167;stroke-linecap:round;stroke-miterlimit:4;stroke-dasharray:none;fill:#ffffff;fill-opacity:0.64730299;opacity:0.7;stroke:#000000;stroke-opacity:0.09543569;filter:url(#filter2817)"
       id="path875"
       d="m 87.637423,133.21262 c -0.138065,-0.4 -0.411509,-0.74887 -0.867693,-0.78193 -0.09938,-0.007 -0.198734,0.0149 -0.298101,0.0224 -0.534979,0.20889 -0.566811,0.19319 -1.185066,0.71733 -0.145626,0.12345 -0.250658,0.28893 -0.360336,0.44519 -0.430916,0.61397 -0.685871,1.29806 -0.949878,1.99349 -0.179356,0.65421 -0.443494,1.45739 -0.290589,2.14681 0.04677,0.21087 0.139316,0.41278 0.252325,0.59687 0.275879,0.4494 0.505614,0.55102 0.920599,0.84749 0.513355,0.26899 1.064117,0.43663 1.646267,0.45139 0.163695,0.004 0.334169,0.0195 0.490344,-0.0297 0.214514,-0.0676 0.398439,-0.20878 0.597657,-0.31317 0,0 0.255796,-0.20413 0.255796,-0.20413 v 0 c -0.117514,0.0494 -0.22811,0.12048 -0.352546,0.14808 -0.15788,0.035 -0.321993,0.0386 -0.483706,0.0374 -0.577199,-0.004 -1.123934,-0.15982 -1.636924,-0.41896 -0.408395,-0.28381 -0.635225,-0.38067 -0.909254,-0.81512 -0.11126,-0.17639 -0.203624,-0.37025 -0.249754,-0.57364 -0.152011,-0.67021 0.109922,-1.48369 0.288573,-2.11891 0.211268,-0.54989 0.324184,-0.89845 0.607576,-1.41742 0.106252,-0.19457 0.226333,-0.382 0.356452,-0.56149 0.111461,-0.15375 0.283165,-0.26547 0.366686,-0.43602 0.02228,-0.0455 -0.189796,0.031 -0.151881,-0.003 0.08637,-0.0765 0.21032,-0.0948 0.315479,-0.14221 0.238868,-0.0326 0.318029,-0.0742 0.548296,0.008 0.308176,0.10941 0.469661,0.39578 0.613653,0.66638 0,0 0.476025,-0.26504 0.476025,-0.26504 z" />
    <path
       style="stroke-width:1.08479167;stroke-linecap:round;stroke-miterlimit:4;stroke-dasharray:none;fill:#ffffff;fill-opacity:0.64730299;opacity:0.7;stroke:#000000;stroke-opacity:0.09543569;filter:url(#filter2821)"
       id="path877"
       d="m 89.310947,132.30714 c 0.224645,-0.13336 0.462232,-0.24701 0.673936,-0.40009 0.261689,-0.18923 0.57159,-0.64631 0.71605,-0.88589 0.565391,-0.93766 0.916596,-1.96505 1.283229,-2.99011 0.400688,-1.23759 0.67156,-2.53065 0.511135,-3.8357 -0.07534,-0.61288 -0.140316,-0.7098 -0.334727,-1.2622 -0.142208,-0.25506 -0.231354,-0.52147 -0.505841,-0.66858 -0.372046,-0.19939 -0.796554,0.18197 -1.031001,0.39504 -0.289402,0.263 -0.531355,1.15773 -0.619776,1.41208 -0.79614,2.87054 -0.919295,5.85867 -1.078778,8.81579 -0.09613,1.9259 -0.237175,3.85373 -0.598072,5.75012 -0.06182,0.27305 -0.07397,0.35057 -0.146426,0.59715 -0.01556,0.053 -0.03084,0.10619 -0.05139,0.15742 -0.0105,0.0262 -0.0643,0.0904 -0.04142,0.0739 0.629426,-0.45508 0.538017,-0.22965 0.553321,-0.77198 0.161213,-1.40865 0.492673,-2.80349 1.107969,-4.08683 0.138123,-0.2881 0.303517,-0.56231 0.455274,-0.84345 0.350644,-0.5215 0.527616,-0.86179 0.994256,-1.27761 0.15748,-0.14033 0.325948,-0.27793 0.520012,-0.36058 0.04386,-0.0187 -0.05106,0.12116 -0.0086,0.14275 1.115743,0.56689 -0.223213,-0.49632 0.758203,0.35687 0.04529,0.17282 0.12695,0.34004 0.135874,0.51849 0.05148,1.02914 -0.692242,1.9795 -1.40176,2.63585 -0.175029,0.16192 -0.369932,0.30094 -0.554897,0.4514 -0.877321,0.5344 -0.430228,0.28612 -0.210852,0.0854 0.0109,-0.01 -0.03246,-0.005 -0.04414,0.004 -0.143308,0.111 -0.322831,0.19547 -0.414784,0.35169 -0.03872,0.0658 0.150394,-0.0332 0.226719,-0.0322 0.09825,0.001 0.194783,0.026 0.292176,0.039 0.274895,0.15236 0.41773,0.20201 0.633233,0.45049 0.460706,0.53122 0.682286,1.32789 0.900377,1.98266 0.104561,0.27696 0.224367,0.93748 0.518366,1.10325 0.09941,0.056 0.224833,0.0393 0.337246,0.0589 0,0 0.334918,-0.22288 0.334918,-0.22288 v 0 c -0.04751,-0.0501 -0.100484,-0.0956 -0.142529,-0.15045 -0.249494,-0.32527 -0.353478,-0.71935 -0.476652,-1.10362 -0.224298,-0.66602 -0.450514,-1.47052 -0.917239,-2.01256 -0.22116,-0.25685 -0.37579,-0.31525 -0.658746,-0.47772 -0.616781,-0.11038 -0.554485,-0.0899 -1.172414,0.40106 -0.01908,0.0152 0.05028,0.0199 0.07243,0.01 0.718085,-0.32884 0.744519,-0.36597 1.305222,-0.72172 0.179625,-0.15099 0.369572,-0.2905 0.538876,-0.45298 0.703152,-0.67483 1.425282,-1.65086 1.360422,-2.6846 -0.01193,-0.19007 -0.09982,-0.36758 -0.149725,-0.55137 -0.116647,-0.10352 -0.210487,-0.24073 -0.349941,-0.31056 -0.527441,-0.26411 -0.983316,0.0929 -1.458293,0.34501 -0.67564,0.35866 -1.095383,1.03567 -1.490583,1.65726 -0.415277,0.78083 -0.52705,0.93019 -0.840478,1.77104 -0.384765,1.03222 -0.601451,2.1172 -0.755391,3.2049 -0.02328,0.51093 -0.135094,0.45892 0.583054,0.2248 0.0245,-0.008 0.01585,-0.0491 0.02244,-0.074 0.03015,-0.11412 0.06787,-0.28434 0.0897,-0.39153 0.02376,-0.11667 0.04525,-0.23381 0.06787,-0.35071 0.30198,-1.88985 0.425712,-3.79992 0.504447,-5.71094 0.14591,-2.96012 0.285165,-5.95363 1.115795,-8.81763 0.110318,-0.29948 0.196996,-0.60877 0.330957,-0.89845 0.08086,-0.17486 0.248976,-0.30503 0.310076,-0.48773 0.01757,-0.0525 -0.2096,0.0152 -0.16092,0.0417 0.08127,0.0442 0.192479,-0.017 0.276717,0.0213 0.27069,0.12288 0.370486,0.40588 0.505111,0.64035 0.212723,0.54378 0.277318,0.62053 0.359397,1.23335 0.173217,1.2933 -0.09998,2.57944 -0.493641,3.80683 -0.13502,0.37025 -0.257752,0.74521 -0.405056,1.11074 -0.280001,0.69481 -0.543203,1.26674 -0.941597,1.89396 -0.126163,0.19864 -0.266178,0.3892 -0.418846,0.56827 -0.09807,0.11502 -0.256958,0.17846 -0.330414,0.31057 -0.03955,0.0711 0.1456,-0.0727 0.2184,-0.10913 0,0 -0.408291,0.32091 -0.408291,0.32091 z" />
    <path
       style="stroke-width:1.08479167;stroke-linecap:round;stroke-miterlimit:4;stroke-dasharray:none;fill:#ffffff;fill-opacity:0.64730299;opacity:0.7;stroke:#000000;stroke-opacity:0.09543569;filter:url(#filter2825)"
       id="path879"
       d="m 99.554606,123.88255 c -0.04085,0.21865 -0.08611,0.43652 -0.122555,0.65595 -0.226481,1.36353 -0.403884,2.73592 -0.591492,4.10509 -0.299607,2.1865 -0.148506,1.12281 -0.464196,3.269 -0.302024,1.79206 -0.537911,3.60405 -0.990341,5.36702 -0.232542,0.2861 0.443887,-0.24901 0.595831,-0.44484 0.09116,-0.11749 0.05637,-0.29209 0.08997,-0.43695 0.04831,-0.2083 0.09929,-0.41604 0.155683,-0.62229 0.201263,-0.7361 0.247566,-0.83303 0.5007,-1.57659 0.284343,-0.80321 0.655125,-1.5746 1.121471,-2.28839 0.120706,-0.18475 0.247043,-0.36667 0.388203,-0.53631 0.10532,-0.12657 0.25417,-0.21499 0.34899,-0.34961 0.0574,-0.0816 -0.15608,0.12434 -0.23413,0.18652 0.0619,0.0508 0.15415,0.0788 0.18572,0.15242 0.11843,0.27608 0.15904,1.03316 0.16469,1.27874 0.0208,0.90281 -0.0929,1.79053 -0.21004,2.68299 -0.10917,0.79324 -0.27932,1.57671 -0.38267,2.37082 -0.0341,0.26223 -0.0974,0.81198 -0.0706,1.09703 0.0125,0.13269 0.0604,0.25961 0.0906,0.38942 0.1456,0.20846 0.21564,0.39701 0.49923,0.45257 0.61083,0.11966 1.20841,-0.4739 1.59093,-0.77379 0.43101,-0.3379 0.99816,-1.07457 1.33626,-1.48478 0.51278,-0.70833 1.01159,-1.44842 1.31704,-2.27493 0.0466,-0.12605 0.24171,-0.7081 0.14129,-0.91677 -0.0335,-0.0695 -0.14119,-0.0623 -0.21179,-0.0935 -0.27719,0.16288 -0.58328,0.2844 -0.83157,0.48864 -0.14834,0.12202 -0.23748,0.30354 -0.33365,0.46981 -0.41861,0.72379 -0.63876,1.45793 -0.53192,2.30195 0.0338,0.26693 0.13619,0.5206 0.20429,0.78089 0.25535,0.43975 0.3625,0.83196 0.90471,0.99888 0.55056,0.1695 0.99247,-0.0966 1.42205,-0.40584 1.22052,-0.87853 1.04304,-0.78492 1.78887,-1.83734 0.60068,-0.98452 1.02018,-2.06347 1.22737,-3.19781 0.0634,-0.34706 0.0697,-0.51785 0.0957,-0.85055 0.01,-0.0806 0.009,-0.16325 0.03,-0.24179 0.0137,-0.0521 0.1233,-0.16065 0.0717,-0.14492 -0.13147,0.0401 -0.28259,0.10473 -0.34367,0.22787 -0.0367,0.0739 0.16379,-0.0402 0.24577,-0.0305 0.43585,0.0516 0.38679,0.11364 0.68215,0.43148 0.0727,0.14499 0.17739,0.27797 0.2181,0.43497 0.16328,0.62974 -0.0854,1.46874 -0.24327,2.06993 -0.14217,0.54127 -0.2995,1.07846 -0.44637,1.61847 -0.18156,0.82675 -0.34181,1.70005 0.26108,2.40442 0.32456,0.37918 0.52159,0.41871 0.95994,0.63283 0.49556,0.0643 0.9038,0.16271 1.40667,0.0385 0.29619,-0.0731 0.58243,-0.19273 0.85013,-0.33905 0.88828,-0.48555 1.54446,-0.92516 2.22173,-1.64434 0.26357,-0.27988 0.485,-0.59664 0.72749,-0.89496 0.40856,-0.69504 0.65277,-0.97755 0.83427,-1.7479 0.0497,-0.21113 0.0906,-0.43464 0.0542,-0.64847 -0.0585,-0.34358 -0.33983,-0.51257 -0.67227,-0.45746 -0.20746,0.0344 -0.3856,0.1679 -0.57841,0.25185 -0.37743,0.30975 -0.79101,0.58006 -1.13229,0.92924 -0.32396,0.33146 -0.84088,1.24142 -0.98102,1.68187 -0.0918,0.28864 -0.18197,0.59631 -0.14538,0.89699 0.0859,0.70635 0.56455,1.07729 1.00224,1.56066 0.27812,0.18443 0.54069,0.3948 0.83438,0.55329 0.57593,0.3108 1.15958,0.48951 1.8003,0.60309 0.2668,0.0473 0.53766,0.0899 0.80854,0.0837 0.2726,-0.006 0.53935,-0.0806 0.80903,-0.12088 0,0 0.0234,-0.0169 0.0234,-0.0169 v 0 c -0.88511,-0.32318 0.11242,0.0114 -1.16295,-0.27492 -0.93436,-0.20974 -1.80537,-0.56577 -2.56533,-1.15909 -0.41326,-0.45503 -0.89731,-0.84015 -0.98694,-1.50474 -0.0753,-0.55867 0.27695,-1.2869 0.54136,-1.73322 0.76859,-1.29743 0.42738,-0.34666 0.67478,-1.11733 0.18275,-0.0912 0.34991,-0.22484 0.54824,-0.27362 0.13503,-0.0332 0.29499,-0.0327 0.41556,0.0366 0.53757,0.30883 0.0379,1.45195 -0.1191,1.7766 -0.15317,0.31681 -0.35839,0.60569 -0.53758,0.90854 -0.89203,1.08078 -0.52578,0.72774 -1.57535,1.6414 -0.11589,0.10088 -0.22202,0.21844 -0.35744,0.29102 -0.25977,0.13922 -0.53144,0.26489 -0.81686,0.33835 -0.48246,0.12417 -0.89314,0.0332 -1.37049,-0.0227 -0.43332,-0.2024 -0.61973,-0.23355 -0.9422,-0.60041 -0.60228,-0.6852 -0.43531,-1.5293 -0.26868,-2.34037 0.14541,-0.54024 0.30295,-1.07723 0.44327,-1.61882 0.16481,-0.63607 0.40468,-1.44316 0.21694,-2.10555 -0.0459,-0.16191 -0.156,-0.29823 -0.23401,-0.44735 -0.11663,-0.11051 -0.21437,-0.24524 -0.3499,-0.33154 -0.11239,-0.0716 -0.24666,-0.10611 -0.37745,-0.1316 -0.34468,-0.0672 -0.66989,0.21329 -0.90887,0.39649 -0.0645,0.0495 -0.082,0.37057 -0.0853,0.3996 -0.13365,1.43812 -0.52167,2.76245 -1.29112,4.00047 -0.20713,0.28448 -0.42458,0.56172 -0.62139,0.85344 -0.0876,0.12989 -0.11302,0.30609 -0.23068,0.40955 -0.3566,0.31359 -0.85708,0.56857 -1.35275,0.43655 -0.54298,-0.14462 -0.64358,-0.5189 -0.90218,-0.94934 -0.0691,-0.25409 -0.17278,-0.50123 -0.2073,-0.76228 -0.0823,-0.62263 -0.005,-1.04024 0.21885,-1.61945 0.0876,-0.2267 0.20308,-0.44296 0.33098,-0.6496 0.10145,-0.16389 0.2939,-0.27404 0.35407,-0.45714 0.0249,-0.0759 -0.15206,0.0492 -0.22809,0.0738 0.25349,0.0337 0.25519,-0.0265 0.19438,0.36716 -0.0286,0.18523 -0.0857,0.36587 -0.15027,0.54183 -0.29925,0.81552 -0.7779,1.55056 -1.28951,2.24583 -1.33296,1.59667 0.0247,0.0262 -1.37331,1.48459 -0.0436,0.0455 -0.0449,0.13482 -0.10336,0.15832 -0.24605,0.0988 -0.48825,0.0721 -0.68873,-0.0962 -0.0826,-0.0693 -0.1282,-0.17339 -0.1923,-0.26009 -0.0315,-0.12317 -0.0807,-0.24312 -0.0944,-0.36951 -0.0301,-0.27857 0.0277,-0.82618 0.0589,-1.08163 0.0966,-0.79173 0.26187,-1.57312 0.36565,-2.36382 0.11061,-0.89497 0.2154,-1.78613 0.19905,-2.6902 -0.005,-0.26372 -0.0393,-1.04848 -0.16395,-1.33403 -0.041,-0.0939 -0.15205,-0.13733 -0.22808,-0.20599 -0.26593,0.14068 -0.54948,0.25216 -0.79778,0.42203 -0.216666,0.14823 -0.614657,0.72412 -0.725648,0.89631 -0.462814,0.71802 -0.826693,1.49612 -1.115374,2.29887 -0.253119,0.73562 -0.494726,1.46861 -0.6897,2.22208 -0.03867,0.14945 -0.227198,0.35116 -0.10876,0.45017 0.48827,0.40817 0.535509,0.0706 0.572,-0.12191 0.108831,-0.53939 0.196493,-1.08263 0.288071,-1.62519 0.207007,-1.22644 0.407344,-2.45408 0.577254,-3.68631 0.229436,-1.62532 0.444945,-3.25269 0.683863,-4.87666 0.331074,-2.25035 0.09145,-0.58287 0.394208,-2.50714 0.03352,-0.21306 0.06231,-0.42685 0.09346,-0.64028 0,0 -0.450936,0.21903 -0.450936,0.21903 z" />
    <path
       style="stroke-width:1.08479167;stroke-linecap:round;stroke-miterlimit:4;stroke-dasharray:none;fill:#ffffff;fill-opacity:0.64730299;opacity:0.7;stroke:#000000;stroke-opacity:0.09543569;filter:url(#filter2829)"
       id="path881"
       d="m 75.570944,141.76255 c 0.02968,0.14176 0.06732,0.28207 0.08903,0.42526 0.107307,0.70785 0.117887,1.10434 0.135562,1.86122 0.02849,1.22025 -0.02495,2.43265 -0.09137,3.65054 -0.05381,0.904 -0.148812,1.80477 -0.270526,2.70193 -0.005,0.0368 -0.100935,0.7331 -0.135773,0.86319 -0.0105,0.0392 -0.03895,0.0711 -0.05842,0.10673 0.160441,-0.14001 0.411438,-0.21887 0.481322,-0.42002 0.0539,-0.15515 -0.12237,-0.30502 -0.175418,-0.46046 -0.319133,-0.93519 -0.104731,-0.46526 -0.502796,-1.47564 -0.33968,-0.86217 -0.326398,-0.78444 -0.748887,-1.57726 -0.280258,-0.45141 -0.572268,-0.98482 -1.107239,-1.18042 -0.04307,-0.0157 -0.372232,-0.085 -0.460828,0.002 -0.120962,0.11927 -0.201845,0.2733 -0.302768,0.40994 0.248635,0.009 0.497118,0.028 0.7459,0.0264 0.739924,-0.005 1.923897,-0.0793 2.627834,-0.12259 1.467049,-0.0902 2.93334,-0.19403 4.39991,-0.2917 0.797578,-0.0604 1.597522,-0.0808 2.394193,-0.15355 0.132593,-0.0121 0.268034,-0.0103 0.397121,-0.0429 0.146312,-0.037 0.281313,-0.10934 0.421968,-0.16401 0,0 0.06235,-0.0461 0.06235,-0.0461 v 0 c -0.05395,-0.24061 0.01333,-0.13475 -0.386342,-0.11227 -0.816467,0.0459 -1.62918,0.13958 -2.44525,0.19144 -1.473899,0.10835 -2.947699,0.22159 -4.422992,0.30968 -0.808363,0.0483 -1.778511,0.1029 -2.600407,0.10835 -0.238138,0.002 -0.476118,-0.0127 -0.714177,-0.019 -0.206899,0.0844 -0.412366,0.17236 -0.620694,0.25315 -0.05235,0.0203 0.09671,-0.0651 0.15249,-0.0716 0.09856,-0.0114 0.202107,-0.009 0.296982,0.0198 0.539951,0.16515 0.8505,0.68877 1.138145,1.12634 0.256593,0.46238 0.59999,1.05257 0.802446,1.53874 0.203801,0.48939 0.334429,0.98823 0.442413,1.50473 0.03615,0.17291 -0.0678,0.43945 0.08807,0.52259 0.188654,0.10062 0.41701,-0.0947 0.625515,-0.142 0.02011,-0.0426 0.04774,-0.0824 0.06028,-0.1278 0.07124,-0.25773 0.104865,-0.61677 0.132551,-0.8669 0.09882,-0.8928 0.177015,-1.78813 0.227304,-2.68501 0.05411,-1.21522 0.09345,-2.42776 0.06783,-3.64452 -0.01484,-0.70476 -0.02357,-1.20173 -0.131638,-1.87527 -0.02347,-0.14638 -0.06798,-0.2886 -0.101971,-0.43291 0,0 -0.511712,0.28962 -0.511712,0.28962 z" />
    <path
       style="stroke-width:1.08479167;stroke-linecap:round;stroke-miterlimit:4;stroke-dasharray:none;fill:#ffffff;fill-opacity:0.64730299;opacity:0.7;stroke:#000000;stroke-opacity:0.09543569;filter:url(#filter2833)"
       id="path883"
       d="m 80.91271,149.81101 c -0.08871,-0.008 -0.177705,-0.0353 -0.266134,-0.0245 -0.303316,0.037 -0.589711,0.17883 -0.836824,0.35052 -0.505024,0.35089 -0.966031,0.61795 -1.24678,1.16227 -0.08301,0.16093 -0.112745,0.34417 -0.169117,0.51625 0.0072,0.16256 -0.0173,0.32966 0.02154,0.48768 0.134798,0.54848 0.549532,0.78622 1.096526,0.63674 0.518734,-0.14175 1.204061,-0.76666 1.537724,-1.02154 0.386136,-0.51722 0.774742,-1.08487 0.753711,-1.76398 -0.0108,-0.34829 -0.07617,-0.57954 -0.451073,-0.646 -0.143136,-0.0254 -0.288811,0.0334 -0.433218,0.0501 -0.477305,0.23771 -0.818017,0.37835 -1.236382,0.80154 -0.08813,0.0891 -0.129892,0.23058 -0.122115,0.3557 0.0078,0.12512 0.07607,0.24973 0.165229,0.33785 0.308113,0.30453 0.711372,0.3204 1.107091,0.40747 0.278418,0.003 0.557019,0.0184 0.835258,0.008 0.275563,-0.0103 0.550198,-0.0398 0.824299,-0.07 0.561832,-0.0618 1.136213,-0.14869 1.678638,-0.31414 0.09164,-0.028 0.17984,-0.0661 0.269758,-0.0992 0.08858,-0.0528 0.177165,-0.10555 0.265748,-0.15832 0,0 0.175099,-0.13867 0.175099,-0.13867 v 0 c -0.0045,-0.0118 -0.009,-0.0235 -0.01347,-0.0353 -0.383651,0.11504 -0.768823,0.20542 -1.163862,0.27539 -0.501949,0.0889 -1.053153,0.17216 -1.561566,0.19575 -0.273629,0.0127 -0.547849,-0.002 -0.821772,-0.003 -0.374409,-0.0787 -0.765148,-0.0924 -1.063045,-0.37127 -0.07972,-0.0746 -0.141645,-0.18313 -0.148331,-0.29213 -0.0069,-0.11244 0.130617,-0.20836 0.110829,-0.31926 -0.01,-0.0559 -0.113324,-0.008 -0.169987,-0.0123 0.136258,-0.0746 0.272515,-0.1492 0.408773,-0.2238 0.205751,-0.0389 0.560996,-0.1836 0.745829,0.0573 0.09104,0.11863 0.103021,0.28637 0.106137,0.43587 0.01397,0.6697 -0.389667,1.231 -0.776438,1.73306 -0.0043,0.0584 0.03187,0.1376 -0.01299,0.17533 -0.232894,0.19593 -0.700233,0.39313 -1.02489,0.33054 -0.300249,-0.0579 -0.49045,-0.32766 -0.558818,-0.60126 -0.03764,-0.15064 -0.01228,-0.3103 -0.01844,-0.46544 0.61455,-1.79802 -0.352242,0.86492 0.511908,-0.95599 0.019,-0.04 -0.101962,-0.081 -0.0708,-0.11254 0.149122,-0.15078 0.595522,-0.33977 0.817039,-0.37826 0.08361,-0.0145 0.169484,0.009 0.254227,0.0135 0,0 0.48069,-0.32439 0.48069,-0.32439 z" />
    <path
       style="stroke-width:1.08479167;stroke-linecap:round;stroke-miterlimit:4;stroke-dasharray:none;fill:#ffffff;fill-opacity:0.64730299;opacity:0.7;stroke:#000000;stroke-opacity:0.09543569;filter:url(#filter2837)"
       id="path885"
       d="m 93.651892,152.07711 c 0.39475,-0.34586 0.757444,-0.74103 1.005374,-1.20895 0.226949,-0.42832 0.533755,-1.27816 0.662456,-1.73057 0.08962,-0.31504 0.148386,-0.63806 0.222581,-0.95708 0.100507,-0.6107 0.18243,-0.96571 0.202223,-1.567 0.005,-0.15083 0.0088,-0.30429 -0.02098,-0.45223 -0.01098,-0.0546 -0.04558,-0.15626 -0.09728,-0.13567 -0.240924,0.0959 -0.476226,0.23685 -0.646975,0.43202 -0.09562,0.1093 -0.06774,0.28243 -0.101611,0.42365 -0.01114,0.52335 -0.05921,0.66729 0.128953,1.18808 0.192662,0.53323 0.441963,0.83158 0.800814,1.26929 0.120624,0.14713 0.92828,1.05763 1.070764,1.21871 0.132257,0.17174 0.279122,0.33317 0.396772,0.51522 0.145454,0.22509 0.319172,0.52104 0.218593,0.81064 -0.100544,0.2895 -0.48528,0.50345 -0.735923,0.58544 -0.04057,0.0133 -0.06867,-0.0507 -0.103007,-0.0761 -0.57418,0.15872 -1.161558,0.28071 -1.756992,0.32143 -1.022117,0.0699 0.218763,-0.0497 -0.468511,0.0197 0,0 -0.188026,0.10961 -0.188026,0.10961 v 0 c -0.02392,0.0616 -0.110953,0.13163 -0.07179,0.18491 0.04848,0.066 0.159478,0.0433 0.241308,0.0457 0.591865,0.0177 1.17978,-0.14133 1.744795,-0.29172 0.393713,-0.1786 0.794374,-0.3426 1.181137,-0.53578 0.286065,-0.14289 0.617447,-0.30017 0.709205,-0.64666 0.132101,-0.49883 -0.429419,-1.00429 -0.686901,-1.33327 -0.269327,-0.29769 -0.82722,-0.9072 -1.074888,-1.21113 -0.346353,-0.42503 -0.59785,-0.73411 -0.781481,-1.25237 -0.183462,-0.51779 -0.131689,-0.64879 -0.110395,-1.16714 0.07247,-0.24584 0.335071,-0.70706 -0.262276,-0.3096 -0.03791,0.0252 0.0926,0.0443 0.104222,0.0883 0.0373,0.14127 0.03591,0.29088 0.03448,0.43699 -0.0055,0.56392 -0.08748,0.97465 -0.169572,1.54227 -0.07344,0.31682 -0.130114,0.63799 -0.22031,0.95046 -0.153699,0.53245 -0.426495,1.24504 -0.7019,1.73337 -0.264388,0.4688 -0.637786,0.86517 -1.047356,1.20789 0,0 0.522499,-0.20842 0.522499,-0.20842 z" />
    <path
       style="stroke-width:1.08479167;stroke-linecap:round;stroke-miterlimit:4;stroke-dasharray:none;fill:#ffffff;fill-opacity:0.64730299;opacity:0.7;stroke:#000000;stroke-opacity:0.09543569;filter:url(#filter2841)"
       id="path887"
       d="m 98.364174,144.26337 c 0.05989,0.17757 0.135241,0.35066 0.179678,0.53271 0.158721,0.65027 0.222853,1.3225 0.276731,1.98719 0.09565,1.18012 0.116138,2.36041 0.121102,3.54354 -0.0019,0.76034 -0.06165,1.51777 -0.117327,2.27526 -0.0086,0.11713 -0.01963,0.23425 -0.02164,0.35168 -5.29e-4,0.0354 -0.01611,0.12398 0.01384,0.10518 0.189611,-0.11899 0.341111,-0.28998 0.511667,-0.43498 -0.05266,-0.12098 -0.105323,-0.24197 -0.157985,-0.36295 0,0 -0.130289,0.0665 -0.130289,0.0665 v 0 c -0.05078,0.17199 -0.101566,0.34398 -0.15235,0.51596 0.159351,-0.0217 0.32688,-0.0101 0.478049,-0.065 0.03552,-0.0129 0.0087,-0.0751 0.01172,-0.11276 0.0093,-0.11774 0.01815,-0.23553 0.02516,-0.35342 0.04472,-0.75164 0.06948,-1.50456 0.07188,-2.25755 -0.01667,-1.18229 -0.04001,-2.36455 -0.132035,-3.54401 -0.0502,-0.64341 -0.117234,-1.37043 -0.268936,-2.00648 -0.04445,-0.18637 -0.121473,-0.36343 -0.18221,-0.54515 0,0 -0.527069,0.30426 -0.527069,0.30426 z" />
    <path
       style="stroke-width:1.08479167;stroke-linecap:round;stroke-miterlimit:4;stroke-dasharray:none;fill:#ffffff;fill-opacity:0.64730299;opacity:0.7;stroke:#000000;stroke-opacity:0.09543569;filter:url(#filter2845)"
       id="path889"
       d="m 96.094038,146.93642 c 0.140163,0.008 0.280077,0.0241 0.420487,0.0251 0.578043,0.004 1.094409,-0.0368 1.67523,-0.0912 0.743032,-0.0696 1.34252,-0.14406 2.079785,-0.26419 0.3284,-0.0535 0.65475,-0.11887 0.98213,-0.17831 0.70359,-0.12021 1.39022,-0.31772 2.08532,-0.47504 0.0215,-0.005 0.51745,-0.0975 0.58675,-0.11051 0,0 0.16676,-0.1131 0.16676,-0.1131 v 0 c -0.0331,-0.2243 0.0213,-0.16874 -0.3253,-0.10343 -0.17328,0.0326 -0.34307,0.0816 -0.51465,0.12224 -0.95732,0.22658 -0.50561,0.12307 -1.56622,0.35332 -0.32851,0.0611 -0.65593,0.12837 -0.98553,0.18329 -1.214227,0.20231 -2.498972,0.35489 -3.731811,0.35185 -0.140354,-2.6e-4 -0.280411,-0.013 -0.420617,-0.0194 0,0 -0.452334,0.3194 -0.452334,0.3194 z" />
    <path
       style="stroke-width:1.08479167;stroke-linecap:round;stroke-miterlimit:4;stroke-dasharray:none;fill:#ffffff;fill-opacity:0.64730299;opacity:0.7;stroke:#000000;stroke-opacity:0.09543569;filter:url(#filter2849)"
       id="path891"
       d="m 103.1344,150.72992 c 0.19895,-0.37924 0.49947,-0.92685 0.30512,-1.36345 -0.0306,-0.0687 -0.0922,-0.11881 -0.13835,-0.1782 -0.073,-0.0231 -0.14247,-0.0726 -0.21895,-0.0693 -0.11063,0.005 -0.22107,0.0408 -0.31911,0.0923 -0.29737,0.15621 -0.5883,0.32794 -0.85917,0.52658 -0.15635,0.11466 -0.28306,0.2655 -0.41483,0.40772 -0.41044,0.44298 -0.39165,0.46227 -0.71422,0.96543 -0.11108,0.26172 -0.3179,0.59843 -0.23175,0.91299 0.0697,0.25451 0.34435,0.37175 0.57967,0.36642 0.4943,-0.0112 1.0505,-0.4931 1.37687,-0.6971 0.49968,-0.50471 0.91425,-1.08234 1.30654,-1.67175 0.0893,-0.1342 0.16957,-0.27434 0.26011,-0.40772 0.0379,-0.0559 0.18656,-0.18724 0.12495,-0.15954 -0.19698,0.0886 -0.36399,0.23255 -0.54598,0.34883 -0.0351,0.20408 -0.0947,0.5146 -0.0939,0.70791 0.002,0.51016 0.14062,1.05108 0.51522,1.42153 0.12106,0.11972 0.2798,0.19407 0.41969,0.2911 0.17207,0.0414 0.33957,0.13536 0.51621,0.12433 0.21134,-0.0132 0.4215,-0.0883 0.6048,-0.19436 0.76298,-0.44127 1.12762,-0.71042 1.54186,-1.41142 0.12318,-0.20845 0.22861,-0.42996 0.30137,-0.6609 0.0622,-0.19731 0.0665,-0.40836 0.0998,-0.61253 -0.0186,-0.16316 -0.0155,-0.33026 -0.0557,-0.48948 -0.052,-0.20605 -0.15845,-0.39395 -0.34163,-0.50731 -0.0528,-0.0327 -0.12015,-0.0731 -0.1788,-0.0526 -0.22386,0.0782 -0.44852,0.17927 -0.62785,0.33439 -0.0398,0.0345 0.0727,0.0762 0.10905,0.11437 0.0812,0.0167 0.16116,0.042 0.24369,0.0501 0.65024,0.0637 1.32989,-0.063 1.98142,-0.0688 0.15291,-0.001 0.3055,0.014 0.45826,0.021 0.10815,0.0358 0.23601,0.0357 0.32446,0.10749 0.29921,0.24297 0.15714,0.96372 0.11002,1.2435 -0.0584,0.34687 -0.22285,1.11375 -0.29291,1.44814 -0.0811,0.41041 -0.1974,0.91748 -0.22415,1.34214 -0.01,0.15187 -0.0163,0.30714 0.0138,0.45631 0.0177,0.0876 0.0366,0.23908 0.12597,0.2367 0.17694,-0.005 0.3114,-0.16833 0.46711,-0.2525 0,0 0.0993,-0.0804 0.0993,-0.0804 v 0 c -0.0771,0.0836 -0.075,0.0998 -0.10085,-0.20536 -0.0129,-0.15243 -0.002,-0.30646 0.012,-0.45876 0.0424,-0.45147 0.1443,-0.89731 0.23243,-1.34069 0.0598,-0.28143 0.25136,-1.15876 0.29538,-1.45661 0.0515,-0.34828 0.15291,-1.02975 -0.20531,-1.29517 -0.0991,-0.0734 -0.23605,-0.0716 -0.35408,-0.10736 -0.15818,-0.005 -0.31629,-0.0174 -0.47456,-0.016 -0.71865,0.006 -1.44488,0.13875 -2.16025,0.0248 -0.22252,0.0104 -0.24615,0.004 -0.55839,0.26695 -0.0425,0.0357 0.11492,-5.3e-4 0.16457,0.0242 0.0705,0.0351 0.13731,0.085 0.18352,0.1488 0.19549,0.26977 0.16567,0.44777 0.20575,0.78045 -0.0921,0.60643 -0.0454,0.67003 -0.38982,1.23639 -0.1349,0.22185 -0.32831,0.40352 -0.47054,0.62074 -0.0363,0.0554 -0.004,0.15391 -0.06,0.18946 -0.5051,0.32125 -0.56378,0.21487 -1.07243,0.10536 -0.13619,-0.0908 -0.29054,-0.15904 -0.40858,-0.27246 -0.36696,-0.3526 -0.5099,-0.88064 -0.5082,-1.37396 5.3e-4,-0.15233 0.0719,-0.54727 0.10153,-0.72314 -0.18507,0.058 -0.38164,0.0875 -0.55522,0.17401 -0.0537,0.0268 -0.0657,0.10053 -0.0976,0.15139 -0.0834,0.13301 -0.16223,0.26895 -0.2484,0.4002 -0.38567,0.58741 -0.79391,1.16517 -1.30735,1.64985 0.11695,0.29088 -0.67438,0.14757 -0.73748,0.11239 -0.25667,-0.14311 -0.23901,-0.39612 -0.17471,-0.64296 0.0435,-0.16712 0.13751,-0.31683 0.20627,-0.47525 0.31668,-0.48139 0.32026,-0.53347 0.72249,-0.95524 0.13422,-0.14074 0.29896,-0.25181 0.42402,-0.40075 0.0234,-0.0278 -0.1392,0.0389 -0.10664,0.0228 0.30995,-0.15352 0.22778,-0.13195 0.50092,-0.0794 0.0452,0.0501 0.10505,0.0902 0.13557,0.15035 0.19015,0.37496 -0.0357,0.88312 -0.14613,1.25052 0,0 0.32403,-0.14757 0.32403,-0.14757 z" />
    <path
       style="stroke-width:1.08479167;stroke-linecap:round;stroke-miterlimit:4;stroke-dasharray:none;fill:#ffffff;fill-opacity:0.64730299;opacity:0.7;stroke:#000000;stroke-opacity:0.09543569;filter:url(#filter2853)"
       id="path893"
       d="m 113.43915,144.08298 c -0.002,0.11709 0.006,0.23468 -0.005,0.35128 -0.0225,0.24223 -0.0609,0.48273 -0.0946,0.72365 -0.0992,0.70803 -0.23316,1.55411 -0.33607,2.25025 -0.19626,1.32757 -0.21486,1.48694 -0.3971,2.81088 -0.12644,1.04204 -0.27801,2.08311 -0.36816,3.12939 -0.0458,0.53158 -0.17959,0.45719 0.11668,0.51426 0,0 0.0852,-0.0397 0.0852,-0.0397 v 0 c 0.0767,-0.0711 0.18686,-0.11802 0.23001,-0.21326 0.086,-0.18982 0.19639,-1.27755 0.20459,-1.3445 0.10806,-0.8822 0.17562,-1.41751 0.2885,-2.32039 0.20911,-1.53121 0.168,-1.27361 0.40215,-2.81227 0.14963,-0.98322 0.34605,-1.97174 0.3968,-2.9674 0.006,-0.11627 -0.004,-0.23281 -0.006,-0.34922 0,0 -0.51635,0.26706 -0.51635,0.26706 z" />
    <path
       style="stroke-width:1.08479167;stroke-linecap:round;stroke-miterlimit:4;stroke-dasharray:none;fill:#ffffff;fill-opacity:0.64730299;opacity:0.7;stroke:#000000;stroke-opacity:0.09543569;filter:url(#filter2857)"
       id="path895"
       d="m 111.6498,147.96223 c 0.71659,0.31211 1.51803,0.30199 2.28472,0.28299 0.76219,-0.0189 0.95024,-0.0505 1.69325,-0.12332 0.23456,-0.0364 0.46911,-0.0727 0.70367,-0.1091 0,0 0.29372,-0.21825 0.29372,-0.21825 v 0 c -0.19877,0.0103 -0.39753,0.0207 -0.59629,0.0311 -1.03218,0.0606 -2.08952,0.14904 -3.11814,-0.007 -0.31411,-0.0476 -0.45321,-0.1066 -0.7293,-0.20248 0,0 -0.53163,0.3459 -0.53163,0.3459 z" />
    <path
       style="stroke-width:1.08479167;stroke-linecap:round;stroke-miterlimit:4;stroke-dasharray:none;fill:#ffffff;fill-opacity:0.64730299;opacity:0.7;stroke:#000000;stroke-opacity:0.09543569;filter:url(#filter2861)"
       id="path899"
       d="m 83.540403,128.07245 c -0.02714,0.26272 -0.143423,0.71078 -0.04915,0.96316 0.01019,0.0273 0.03386,0.0474 0.05078,0.071 0.545451,0.0801 0.694885,-0.52608 0.703371,-0.90594 -0.0075,-0.0633 -0.0064,-0.12705 -0.04171,-0.18342 -0.0191,-0.0305 -0.07543,-0.0812 -0.12024,-0.0598 -0.485489,0.23159 -0.411985,0.16812 -0.606353,0.36664 -0.02569,0.0481 -0.135573,0.13309 -0.14205,0.18981 -7.93e-4,0.006 0.0091,0.009 0.01363,0.0137 0,0 0.446734,-0.20089 0.446734,-0.20089 v 0 c 0.07443,-0.0605 0.118181,-0.14922 0.192301,-0.21124 0.186629,-0.14932 0.09313,-0.0682 -0.347101,0.17192 -0.01588,0.009 0.02992,-0.024 0.04794,-0.0253 0.04649,-0.003 0.05573,0.0577 0.06112,0.085 0.0064,0.0324 0.0068,0.0656 0.01019,0.0984 -0.0086,0.13855 -0.02413,0.27499 -0.06745,0.40795 -0.01386,0.0425 -0.09519,0.13102 -0.05101,0.12409 0.222721,-0.0349 0.534289,-0.28963 0.345048,-0.13892 -0.01619,-0.0146 -0.03877,-0.0242 -0.04858,-0.0437 -0.115777,-0.22949 0.02938,-0.69868 0.05852,-0.94453 0,0 -0.456001,0.22199 -0.456001,0.22199 z" />
  </g>
</svg>
